<svg width="158" height="159" viewBox="0 0 158 159" fill="none" xmlns="http://www.w3.org/2000/svg">
<g filter="url(#filter0_d_665_13787)">
<path d="M58.782 126.292C58.8857 126.3 58.991 126.31 59.094 126.319C58.9816 125.087 58.8644 123.855 58.7422 122.623C58.5831 122.761 58.4177 122.892 58.2461 123.018C58.3537 124.11 58.4622 125.194 58.5581 126.283C58.6361 126.287 58.7094 126.287 58.782 126.292Z" fill="#FF9F48"/>
<path d="M118.446 88.545C118.437 88.4878 118.407 88.4362 118.361 88.4004C118.316 88.3647 118.258 88.3475 118.2 88.3524C117.912 88.3625 117.623 88.368 117.335 88.3781L116.698 88.9303L116.878 88.9264C117.208 88.9166 117.538 88.9056 117.867 88.8937C116.69 94.2811 115.427 99.6507 114.123 105.008C113.906 105.902 113.677 106.792 113.456 107.685C113.422 107.964 113.354 108.238 113.254 108.501C112.107 113.123 110.924 117.736 109.705 122.341C108.935 125.227 108.142 128.106 107.327 130.979C102.755 131.156 98.1801 131.223 93.6054 131.234C93.6374 130.638 93.6834 130.043 93.7185 129.447C93.5399 129.473 93.3621 129.504 93.1835 129.525C93.1476 130.094 93.1055 130.663 93.075 131.231C89.8781 131.236 86.6801 131.219 83.481 131.181C80.985 131.151 78.4914 131.115 76.0001 131.072L76.0094 130.958C76.0132 130.926 76.0103 130.894 76.0007 130.864C75.9912 130.834 75.9753 130.806 75.954 130.783C75.9405 130.458 75.9275 130.133 75.915 129.807C75.736 129.774 75.5576 129.738 75.38 129.698L75.4346 131.063C70.1173 130.977 64.8 130.887 59.482 130.858C59.4845 130.847 59.4858 130.835 59.4859 130.823C59.4602 130.501 59.4305 130.18 59.4032 129.859L58.8736 129.872C58.9001 130.189 58.9298 130.506 58.9555 130.823C58.9578 130.835 58.9612 130.847 58.9656 130.858C54.6233 130.832 50.2809 130.869 45.9396 130.968C44.6277 125.539 43.5521 120.055 42.5076 114.569C41.5911 109.757 40.7035 104.94 39.7566 100.134L39.2324 100.19C39.5299 101.704 39.8229 103.22 40.1115 104.737C41.2222 110.564 42.283 116.402 43.4655 122.215C44.0895 125.257 44.74 128.291 45.4724 131.307C45.4883 131.363 45.5218 131.412 45.5679 131.447C45.614 131.482 45.6703 131.501 45.7283 131.502C53.7435 131.302 61.7635 131.382 69.7803 131.502C71.7246 131.532 73.6694 131.563 75.6147 131.595H75.7754C81.8391 131.693 87.9029 131.783 93.9674 131.764C98.4879 131.758 103.008 131.669 107.525 131.498C107.583 131.496 107.639 131.477 107.685 131.442C107.731 131.407 107.764 131.358 107.781 131.303C109.328 125.886 110.772 120.441 112.17 114.984C113.65 109.208 115.07 103.417 116.431 97.6117C117.127 94.6399 117.801 91.6632 118.455 88.6815C118.464 88.6361 118.461 88.5889 118.446 88.545Z" fill="#FF9F48"/>
<path d="M75.2684 78.9897C75.3744 80.0466 75.4665 81.1144 75.6662 82.158C75.6888 82.275 75.7122 82.392 75.7364 82.5082C75.7855 82.75 75.8378 82.9911 75.8877 83.2329C77.1645 81.0489 78.4898 78.8906 79.8969 76.7854C81.006 75.1271 82.1693 73.5052 83.3866 71.9197C83.0668 71.8917 82.7478 71.8659 82.4288 71.8347C79.7697 71.5758 77.1193 71.2263 74.4782 70.8301C74.6217 72.0781 74.7395 73.3261 74.855 74.5741C74.9907 76.0436 75.1209 77.5178 75.2684 78.9897ZM59.7495 88.7319C59.5061 87.8354 59.2804 86.9342 59.0724 86.0284C59.0537 86.1212 59.0389 86.214 59.0202 86.3068C58.3288 89.8909 57.3373 93.4104 56.0562 96.8283C55.1812 99.0655 54.1879 101.255 53.0805 103.386C50.6976 108.071 48.3077 112.998 48.1267 118.35C48.0977 119.202 48.1237 120.055 48.2047 120.904C48.264 121.616 48.567 122.286 49.0627 122.801C50.182 123.971 51.8707 124.191 53.4135 124.085C54.8728 124.003 56.292 123.577 57.5553 122.842C58.3716 122.317 59.0852 121.647 59.6613 120.866C61.5389 118.394 63.2621 115.809 64.821 113.126C65.5269 111.959 66.2165 110.786 66.899 109.603C65.9068 106.598 64.7859 103.635 63.6924 100.665C62.2533 96.7323 60.8477 92.7785 59.7495 88.7319Z" fill="#97A0B2"/>
<path d="M70.5827 119.014C71.1591 118.658 71.7672 118.355 72.3993 118.111C73.0017 117.857 73.6185 117.638 74.2464 117.456C76.7 116.855 79.2161 116.547 81.7422 116.538C81.6543 115.846 81.5573 115.154 81.4512 114.464C81.0764 112.067 80.663 109.676 80.211 107.293C78.8482 105.874 77.6778 104.282 76.7299 102.558C75.8711 100.937 75.3322 99.1655 75.1426 97.341C75.0103 95.9166 75.0783 94.4807 75.3446 93.0751C74.1253 92.4869 72.9343 91.8419 71.7753 91.1423C71.7156 91.1057 71.6724 91.0474 71.6547 90.9797C71.6369 90.9119 71.6461 90.84 71.6802 90.7788L72.4797 89.2968C73.4593 87.495 74.4622 85.7052 75.4881 83.9273C75.375 83.3813 75.2604 82.8408 75.1551 82.2963C75.0045 81.507 74.921 80.7028 74.8337 79.9041C74.6106 77.8394 74.439 75.7701 74.244 73.7007C74.152 72.7218 74.0724 71.732 73.9578 70.7484C71.7246 70.4099 69.4876 70.0464 67.2872 69.541C64.8354 68.9238 62.4681 68.0099 60.2376 66.8196C59.7898 66.591 59.3476 66.3516 58.9116 66.1035C58.3382 68.9844 58.0793 71.9191 58.1394 74.8559C60.1258 74.7587 62.1135 74.6791 64.1025 74.6172C64.4449 74.6071 64.4433 75.1375 64.1025 75.1476C62.7785 75.1866 61.4546 75.2342 60.1307 75.2904C59.4716 75.3184 58.8117 75.3535 58.1526 75.3855C58.1752 76.1749 58.2119 76.9627 58.2759 77.7497C58.674 82.0385 59.5103 86.2752 60.7719 90.3935C61.9419 94.3715 63.3786 98.2715 64.8177 102.159C66.1437 105.734 67.4845 109.312 68.5118 112.986C69.1417 115.149 69.5853 117.363 69.8378 119.601C70.0696 119.385 70.3187 119.189 70.5827 119.014Z" fill="#97A0B2"/>
<path d="M128.806 31.0633C130.14 30.2893 131.581 29.7181 133.082 29.3683C133.816 29.2075 134.565 29.129 135.316 29.1343C136.082 29.1429 136.832 29.3301 137.596 29.3332C138.24 29.3332 139.251 29.0361 139.18 28.2093C139.153 27.8926 138.924 27.7483 138.641 27.6531C137.867 27.4635 137.077 27.3473 136.281 27.306C135.672 27.2218 134.834 27.09 134.55 26.4558C134.172 25.6103 135.018 25.2726 135.698 25.1821C136.71 25.0979 137.727 25.0912 138.74 25.1618C139.08 25.1688 139.625 25.2562 139.91 25.0362C139.99 24.9731 140.052 24.8903 140.089 24.796C140.127 24.7017 140.14 24.5991 140.126 24.4985C140.112 24.3979 140.072 24.3026 140.009 24.2223C139.947 24.1419 139.865 24.0791 139.771 24.0402C139.487 23.9205 139.197 23.8181 138.9 23.7336C138.344 23.5776 137.779 23.4614 137.225 23.3023C136.697 23.1864 136.195 22.9749 135.743 22.6783C135.66 22.628 135.588 22.5618 135.531 22.4835C135.473 22.4052 135.432 22.3164 135.409 22.2222C135.387 22.128 135.383 22.0302 135.398 21.9344C135.413 21.8387 135.447 21.7469 135.498 21.6643L135.521 21.6276C135.819 21.2506 136.222 20.9709 136.679 20.8242C137.178 20.6487 137.664 20.4381 138.133 20.194C138.319 20.0958 138.477 19.9522 138.593 19.7767C138.693 19.6066 138.772 19.2533 138.601 19.1028C138.445 18.9647 138.12 18.9967 137.928 18.9897C137.671 18.9798 137.414 18.9777 137.158 18.9834C136.631 18.9944 136.107 19.0387 135.586 19.116C134.579 19.3051 133.587 19.5658 132.617 19.896C131.749 20.2235 130.795 20.2439 129.913 19.9537C129.562 19.827 129.257 19.5996 129.035 19.3C128.813 19.0005 128.684 18.6421 128.665 18.2697C128.71 17.5104 128.88 16.7637 129.167 16.0592C129.345 15.4812 129.499 14.5772 128.81 14.2402C128.085 13.883 127.933 15.4781 127.796 15.8712C127.515 16.6693 127.121 17.4229 126.626 18.109C125.599 19.5606 124.294 20.7938 122.786 21.7368C121.07 22.807 119.26 23.7648 117.456 24.6813C115.971 25.4369 114.463 26.1428 112.932 26.799C114.112 28.3465 115.463 29.7443 116.74 31.2099C118.066 32.734 119.365 34.2792 120.729 35.7714C122.214 34.9836 123.7 34.1887 125.152 33.3409C126.39 32.6147 127.55 31.7637 128.806 31.0633ZM128.421 21.6151C128.446 21.2766 128.976 21.2751 128.951 21.6151C128.846 23.0268 129.217 24.4331 130.004 25.6095C130.195 25.895 129.735 26.1602 129.546 25.8778C128.709 24.6209 128.313 23.1215 128.421 21.6151Z" fill="#A76C6C"/>
<path d="M112.685 26.5836C113.546 27.7283 114.471 28.8243 115.453 29.8666C117.267 31.8658 118.999 33.9367 120.81 35.9382C120.834 35.9637 120.853 35.9938 120.865 36.0267C120.878 36.0597 120.884 36.0947 120.883 36.13C120.882 36.1652 120.874 36.1999 120.859 36.232C120.845 36.2641 120.824 36.2931 120.799 36.3172L120.776 36.336C120.784 36.336 120.793 36.336 120.8 36.3313C122.251 35.5622 123.7 34.7869 125.123 33.9671C126.256 33.3142 127.319 32.5576 128.441 31.8868C129.802 31.0377 131.28 30.3923 132.828 29.9712C133.608 29.7705 134.41 29.6671 135.215 29.6631C136.016 29.6631 136.8 29.8596 137.597 29.8627C137.944 29.8868 138.293 29.8279 138.614 29.6909C138.934 29.5539 139.218 29.3428 139.441 29.0749C139.601 28.8693 139.694 28.6194 139.708 28.3591C139.722 28.0987 139.656 27.8403 139.519 27.6187C139.087 27.0204 138.125 26.9752 137.462 26.9042C137.045 26.8597 136.626 26.8262 136.214 26.7622C135.857 26.7349 135.512 26.6243 135.206 26.4393C135.126 26.3838 135.064 26.3067 135.026 26.217C135.009 26.1693 134.999 26.1194 134.997 26.0688C134.995 26.0379 134.995 26.0069 134.997 25.976C135 25.9682 135.006 25.9615 135.013 25.9565C135.316 25.7921 135.652 25.6973 135.996 25.6788C137.135 25.5829 138.275 25.7365 139.413 25.6905C139.666 25.7085 139.918 25.645 140.133 25.5092C140.347 25.3735 140.512 25.1727 140.604 24.9363C140.694 24.679 140.686 24.3973 140.58 24.1459C140.474 23.8945 140.279 23.6913 140.032 23.5759C140.02 23.572 140.007 23.5691 139.994 23.5674C139.986 23.5609 139.978 23.5549 139.969 23.5494C138.854 23.0814 137.629 22.9769 136.518 22.5027C136.307 22.4339 136.115 22.316 135.958 22.1587C135.88 22.0518 135.904 21.991 136.005 21.8599C136.343 21.5314 136.76 21.296 137.216 21.1767C138.074 20.842 139.332 20.4146 139.214 19.2641C139.115 18.2953 137.87 18.4373 137.158 18.4529C136.107 18.4764 135.063 18.6252 134.047 18.8959C133.106 19.2579 132.125 19.5046 131.124 19.6307C130.315 19.6463 129.269 19.2813 129.197 18.3414C129.089 16.9374 130.484 15.4858 129.503 14.166C129.42 14.0271 129.305 13.9105 129.167 13.826C129.028 13.7415 128.872 13.6918 128.71 13.6809C128.549 13.6701 128.387 13.6986 128.239 13.7639C128.091 13.8293 127.961 13.9295 127.86 14.056C127.657 14.3645 127.524 14.7139 127.47 15.0794C127.381 15.4766 127.254 15.8645 127.092 16.2377C126.304 17.896 125.132 19.343 123.674 20.4591C122.925 21.0303 122.132 21.5424 121.303 21.991C120.4 22.511 119.487 23.0159 118.566 23.5057C116.914 24.3875 115.231 25.2101 113.52 25.9721C113.145 26.139 112.768 26.3023 112.389 26.4619C112.445 26.448 112.503 26.4523 112.557 26.4742C112.61 26.4961 112.655 26.5344 112.685 26.5836ZM116.736 31.2082C115.46 29.7426 114.109 28.3449 112.928 26.7973C114.46 26.1421 115.968 25.4362 117.452 24.6796C119.257 23.7616 121.063 22.8076 122.783 21.7351C124.291 20.7919 125.596 19.5588 126.624 18.1074C127.118 17.4211 127.512 16.6675 127.794 15.8695C127.927 15.4795 128.079 13.8813 128.808 14.2386C129.496 14.5779 129.343 15.4795 129.164 16.0575C128.877 16.7622 128.708 17.5092 128.663 18.2688C128.682 18.641 128.811 18.9993 129.033 19.2987C129.255 19.5981 129.56 19.8254 129.911 19.9521C130.792 20.2422 131.746 20.2219 132.615 19.8943C133.585 19.5645 134.577 19.3038 135.584 19.1143C136.104 19.0371 136.629 18.9928 137.155 18.9817C137.412 18.9763 137.668 18.9778 137.925 18.988C138.118 18.995 138.442 18.963 138.599 19.1011C138.77 19.2516 138.69 19.605 138.59 19.775C138.475 19.9506 138.317 20.0941 138.131 20.1923C137.662 20.4364 137.175 20.647 136.676 20.8225C136.219 20.969 135.816 21.2488 135.52 21.6259C135.464 21.7052 135.425 21.7946 135.405 21.8889C135.384 21.9832 135.382 22.0807 135.399 22.1758C135.417 22.2708 135.452 22.3616 135.504 22.4428C135.557 22.5241 135.624 22.5942 135.704 22.6493C135.715 22.6571 135.728 22.6657 135.74 22.6727C136.192 22.9693 136.694 23.1808 137.222 23.2967C137.777 23.4527 138.342 23.5752 138.898 23.728C139.194 23.8125 139.485 23.9151 139.769 24.0354C139.863 24.074 139.945 24.1366 140.008 24.2169C140.07 24.2972 140.11 24.3925 140.124 24.4931C140.138 24.5938 140.126 24.6964 140.088 24.7907C140.05 24.885 139.988 24.9677 139.908 25.0306C139.618 25.2506 139.073 25.1632 138.738 25.1562C137.725 25.086 136.708 25.0928 135.696 25.1765C135.016 25.267 134.169 25.6047 134.548 26.4502C134.832 27.0844 135.669 27.2162 136.279 27.3004C137.075 27.3418 137.865 27.458 138.64 27.6475C138.922 27.7427 139.15 27.887 139.178 28.2037C139.249 29.0305 138.237 29.33 137.594 29.3277C136.83 29.3277 136.08 29.1373 135.314 29.1288C134.563 29.1234 133.814 29.2019 133.08 29.3628C131.578 29.7129 130.137 30.2841 128.804 31.0577C127.548 31.7597 126.386 32.6091 125.146 33.3345C123.693 34.1824 122.208 34.9772 120.722 35.765C119.359 34.2729 118.061 32.7277 116.733 31.2036L116.736 31.2082Z" fill="black"/>
<path d="M85.3366 69.4915C85.0588 69.4713 84.7819 69.4393 84.5067 69.3956C81.6915 69.0104 78.9727 68.1037 76.4899 66.7218C75.1053 65.9103 73.9538 64.755 73.1468 63.3678C72.5339 62.2047 72.1382 60.9397 71.9791 59.6347C71.3606 55.3759 71.26 50.8815 72.8013 46.7974C72.9214 46.48 73.4338 46.618 73.3129 46.9378C72.7817 48.3968 72.4263 49.914 72.2545 51.4572C72.058 52.9786 72.0173 54.5162 72.1328 56.0459C72.3426 58.563 72.4448 61.3015 73.841 63.4965C74.732 64.8214 75.9481 65.8957 77.3728 66.6165C79.5644 67.7125 81.9142 68.4581 84.3367 68.8262C84.4188 67.8267 84.6017 66.8381 84.8827 65.8755C85.4459 63.8566 86.3385 61.9446 87.5245 60.2166C88.2811 59.1183 89.1492 58.1013 90.1149 57.1816C90.3838 56.9268 90.6596 56.6787 90.9425 56.4375L91.2295 56.2035C90.6521 56.0738 90.1062 55.8307 89.6235 55.4882C87.4832 53.9009 88.161 50.7567 88.7133 48.5618C88.7319 48.4939 88.7767 48.4363 88.8378 48.4015C88.899 48.3666 88.9714 48.3575 89.0393 48.3762C89.1072 48.3948 89.1648 48.4396 89.1996 48.5007C89.2345 48.5619 89.2436 48.6343 89.2249 48.7022C89.0333 49.4289 88.8846 50.1662 88.7796 50.9104C88.5657 51.9825 88.6807 53.0942 89.1095 54.0998C89.4032 54.5747 89.8033 54.9748 90.2781 55.2686C90.753 55.5623 91.2897 55.7417 91.8457 55.7924C92.0619 55.7855 92.2782 55.797 92.4924 55.8267L93.2724 55.8657C94.0186 55.9032 94.765 55.9437 95.5117 55.9874C96.221 54.8623 96.96 53.7561 97.7277 52.6701C99.1437 50.6685 100.714 48.7808 102.425 47.0244C102.225 47.0189 102.025 47.0049 101.827 46.9823C101.338 46.9246 100.246 46.7772 100.261 46.104C100.27 45.707 100.699 45.3973 101.01 45.2164C101.375 45.0172 101.77 44.8802 102.18 44.8108C102.404 44.7663 102.63 44.7328 102.855 44.7016C103.052 44.6955 103.246 44.6641 103.434 44.608C103.515 44.568 103.577 44.4976 103.606 44.4121C103.636 44.3265 103.63 44.2329 103.59 44.1517C103.571 44.1115 103.545 44.0755 103.512 44.0456C103.259 43.9366 102.986 43.8833 102.71 43.8896L101.155 43.6735L99.7339 43.4762C99.342 43.4456 98.9565 43.3584 98.5896 43.2172C98.4296 43.1525 98.2863 43.0526 98.1703 42.9249C98.0543 42.7971 97.9686 42.6448 97.9196 42.4794C97.8845 42.2562 97.894 42.0283 97.9476 41.8089C98.0011 41.5895 98.0977 41.3828 98.2316 41.2009C98.6558 40.5551 99.2494 40.0383 99.9476 39.7072C101.59 39.021 103.332 38.5998 105.107 38.4592C107.095 38.1657 109.102 38.0094 111.113 37.9912C112.697 37.9817 114.279 38.0889 115.848 38.3118C117.299 37.5646 118.746 36.8106 120.191 36.0498C118.466 34.131 116.803 32.1568 115.069 30.2451C114.133 29.21 113.191 28.1648 112.359 27.04C111.283 27.4914 110.194 27.9107 109.093 28.2974C108.442 28.5252 107.785 28.7342 107.126 28.9331C107.09 30.2508 106.724 31.5384 106.06 32.6771C105.187 34.1727 103.81 35.3085 102.176 35.8806C101.205 36.2175 100.187 36.397 99.159 36.4125C98.1825 37.5552 97.0423 38.5472 95.7754 39.3562C94.9103 39.8834 93.9409 40.2162 92.9344 40.3315C91.9279 40.4468 90.9083 40.3419 89.9464 40.0239C89.2076 39.7346 88.5266 39.3154 87.9356 38.7861C87.2056 38.2092 86.6548 37.4366 86.3475 36.5584C85.9132 35.0644 86.0291 33.4642 86.6743 32.0484C85.081 32.6996 83.5381 33.4679 82.0583 34.3471C78.3063 36.3671 74.7085 38.6614 71.2943 41.2111C69.5871 42.4996 67.9374 43.8602 66.3452 45.2928C64.7072 46.7631 63.169 48.3286 61.602 49.8722C60.198 51.259 58.7059 52.564 57.3456 53.9984C55.9737 55.3297 54.8833 56.9231 54.139 58.6839C53.9798 59.1095 53.8569 59.5479 53.7716 59.9943C53.7272 60.2264 53.6952 60.4607 53.6757 60.6963C53.6298 60.8932 53.6381 61.0989 53.6998 61.2914C53.9081 61.6158 54.1568 61.9122 54.4401 62.1736C54.7357 62.4856 55.05 62.7789 55.3761 63.0597C56.8678 64.2984 58.4976 65.3608 60.2331 66.2257C62.8665 67.6336 65.6846 68.6644 68.6049 69.288C71.7327 69.9237 74.8987 70.3909 78.0624 70.8019C79.9437 71.0461 81.8493 71.3058 83.7564 71.447C84.2722 70.7871 84.799 70.1353 85.3366 69.4915Z" fill="#FFD2D2"/>
<path d="M111.124 26.9741C109.81 27.4941 108.477 27.9621 107.127 28.3781C107.135 28.5614 107.138 28.7439 107.134 28.9241C107.794 28.7264 108.45 28.5145 109.101 28.2884C110.202 27.9017 111.291 27.4824 112.367 27.031C113.199 28.1558 114.138 29.201 115.077 30.2361C116.81 32.1478 118.473 34.122 120.199 36.0416C118.755 36.8029 117.307 37.5569 115.855 38.3036C116.148 38.3462 116.441 38.3933 116.732 38.4448C118.077 37.7535 119.417 37.0554 120.754 36.3505C120.763 36.3458 120.767 36.3372 120.774 36.3318C120.803 36.3106 120.826 36.284 120.844 36.2536C120.862 36.2232 120.874 36.1896 120.879 36.1547C120.884 36.1197 120.881 36.0841 120.873 36.05C120.864 36.0159 120.848 35.9839 120.827 35.9558C120.821 35.948 120.815 35.9407 120.808 35.934C118.997 33.9325 117.265 31.8616 115.452 29.8624C114.469 28.8201 113.545 27.7241 112.683 26.5794C112.653 26.5298 112.608 26.4911 112.554 26.4692C112.5 26.4473 112.441 26.4433 112.385 26.4577C112.147 26.5576 111.907 26.6527 111.667 26.7502C111.485 26.8314 111.306 26.9031 111.124 26.9741ZM58.9079 66.1059C59.347 66.3524 59.7893 66.5934 60.2339 66.822C62.4644 68.0123 64.8318 68.9262 67.2835 69.5434C69.4839 70.0519 71.721 70.4123 73.9541 70.7508L74.3043 70.8046L74.4751 70.8296C77.1162 71.2258 79.7667 71.5753 82.4257 71.8342C82.7447 71.8654 83.0637 71.8912 83.3835 71.9193L83.7532 71.4458C81.8469 71.3046 79.9414 71.0449 78.0592 70.8007C74.8956 70.3897 71.7295 69.9225 68.6017 69.2868C65.6826 68.6634 62.8656 67.6331 60.2331 66.226C58.4976 65.3612 56.8678 64.2988 55.3761 63.06C55.0498 62.7801 54.7375 62.4843 54.4401 62.1739C54.1568 61.9126 53.908 61.6161 53.6998 61.2918C53.6381 61.0992 53.6298 60.8935 53.6757 60.6966C53.6952 60.4611 53.7272 60.2268 53.7716 59.9946C53.8568 59.5482 53.9797 59.1099 54.139 58.6842C54.8833 56.9234 55.9737 55.3301 57.3456 53.9988C58.7059 52.5643 60.1941 51.2602 61.602 49.8726C63.169 48.3289 64.7056 46.7635 66.3452 45.2932C67.9369 43.8653 69.5866 42.5047 71.2943 41.2114C74.7085 38.6617 78.3063 36.3675 82.0583 34.3474C83.5381 33.4683 85.081 32.7 86.6743 32.0488C86.7617 31.8312 86.8561 31.6174 86.9575 31.4053C85.0283 32.1393 83.1678 33.0424 81.3976 34.1041C77.5413 36.2156 73.8514 38.6177 70.3599 41.2894C70.1493 41.4517 69.9441 41.6217 69.7359 41.7863C67.8824 43.2347 66.0967 44.7677 64.3843 46.3805C63.0981 47.5965 61.8813 48.8812 60.6028 50.105C59.4219 51.2368 58.2082 52.3374 57.0819 53.5144C55.9721 54.6217 55.0142 55.8716 54.2334 57.2311C53.8847 57.8652 53.6094 58.5369 53.4128 59.2333C53.3178 59.5785 53.2466 59.9298 53.1999 60.2848C53.0978 60.661 53.0858 61.0559 53.1648 61.4376C53.3054 61.6776 53.4749 61.8995 53.6694 62.0983C53.8987 62.3697 54.1413 62.6297 54.3972 62.8783C54.9333 63.3921 55.5032 63.8695 56.103 64.3072C56.8505 64.857 57.6272 65.3658 58.4298 65.8314C58.5881 65.9234 58.748 66.0147 58.9079 66.1059ZM97.7308 52.6689C96.9631 53.7549 96.2242 54.8611 95.5149 55.9862C95.7145 55.9979 95.9134 56.0127 96.1123 56.026C96.1857 55.9113 96.2574 55.792 96.3315 55.6804C97.7174 53.4983 99.2509 51.4135 100.921 49.4404C101.638 48.6084 102.388 47.8024 103.173 47.0224C102.925 47.0302 102.676 47.0334 102.428 47.0224C100.717 48.7791 99.1468 50.667 97.7308 52.6689Z" fill="black"/>
<path d="M90.2657 27.9589C90.1253 27.9081 89.9883 27.8484 89.8554 27.7803C89.1534 28.8013 88.4343 29.8169 87.822 30.8933C86.8041 32.6873 86.106 34.9282 87.0537 36.9047C87.4446 37.627 88.0012 38.2463 88.6776 38.712C89.2984 39.2011 90.021 39.5447 90.7922 39.7174C91.7438 39.898 92.7229 39.8749 93.6649 39.6497C94.607 39.4245 95.4906 39.0023 96.2577 38.4109C97.051 37.8149 97.784 37.1427 98.4464 36.404C97.6923 36.3642 96.9455 36.2364 96.221 36.0233C92.736 34.9922 90.0325 31.6756 90.2657 27.9589Z" fill="#A76C6C"/>
<path d="M92.2646 23.6161C92.3129 23.5591 92.3613 23.5022 92.4112 23.446C92.3672 23.4304 92.3199 23.4266 92.2739 23.4351C92.226 23.4437 92.1816 23.4659 92.146 23.4991C92.1866 23.5365 92.2263 23.5755 92.2646 23.6161ZM86.3483 36.5602C86.6556 37.4383 87.2064 38.211 87.9364 38.7878C88.5274 39.3172 89.2084 39.7364 89.9472 40.0257C90.9091 40.3436 91.9286 40.4486 92.9351 40.3333C93.9416 40.218 94.911 39.8852 95.7761 39.358C97.043 38.549 98.1832 37.557 99.1598 36.4143C98.9219 36.4182 98.684 36.4143 98.4461 36.4034C97.7837 37.1422 97.0507 37.8143 96.2574 38.4103C95.4903 39.0018 94.6067 39.424 93.6646 39.6492C92.7226 39.8744 91.7435 39.8974 90.7919 39.7168C90.0208 39.5444 89.2982 39.2011 88.6773 38.7122C88.001 38.246 87.4445 37.6265 87.0534 36.9041C86.1049 34.9284 86.8038 32.6843 87.8217 30.8927C88.434 29.8163 89.1547 28.8007 89.8551 27.7797C89.6987 27.6966 89.5492 27.6008 89.4082 27.4934C88.7842 28.406 88.1446 29.3155 87.5752 30.2648C87.3545 30.6322 87.1462 31.0144 86.9582 31.4067C86.8568 31.6189 86.7624 31.8326 86.6751 32.0502C86.0299 33.466 85.9139 35.0662 86.3483 36.5602Z" fill="black"/>
<path d="M104.831 24.1019C104.077 23.2334 103.146 22.5367 102.101 22.0591C101.001 21.593 99.8255 21.3288 98.6319 21.2791C97.5144 21.1794 96.3895 21.3553 95.3559 21.7916C94.2159 22.3668 93.2215 23.1936 92.448 24.2096C92.4229 24.2342 92.3931 24.2536 92.3604 24.2668C92.3277 24.2799 92.2928 24.2864 92.2575 24.286C92.2223 24.2855 92.1875 24.2781 92.1552 24.2642C92.1228 24.2503 92.0935 24.2301 92.069 24.2049C92.0545 24.1901 92.042 24.1736 92.0315 24.1557C91.8516 23.9053 91.6097 23.7058 91.3295 23.5769C91.0494 23.448 90.7406 23.394 90.4333 23.4202C90.1321 23.4481 89.8441 23.5572 89.5999 23.7357C89.3557 23.9143 89.1644 24.1556 89.0465 24.4342C88.9165 24.7182 88.8487 25.0268 88.8477 25.3391C88.8466 25.6515 88.9122 25.9604 89.0402 26.2454C89.1994 26.554 89.4211 26.8261 89.6911 27.0445C89.9612 27.2628 90.2737 27.4226 90.6088 27.5136C90.6646 27.5295 90.7137 27.563 90.7489 27.6091C90.784 27.6552 90.8033 27.7115 90.8038 27.7695C90.7328 28.7444 90.8586 29.7236 91.1737 30.6489C91.4889 31.5741 91.987 32.4266 92.6384 33.1554C93.8976 34.4826 95.539 35.3845 97.3345 35.7356C99.13 36.0868 100.99 35.8698 102.657 35.1147C104.038 34.4307 105.159 33.317 105.853 31.941C106.547 30.5651 106.776 29.0011 106.505 27.484C106.25 26.2305 105.673 25.0649 104.831 24.1019ZM103.997 26.782C104.141 26.6405 104.319 26.5375 104.513 26.4826C104.708 26.4277 104.913 26.4225 105.11 26.4677C105.307 26.5128 105.489 26.6068 105.64 26.7409C105.792 26.875 105.907 27.045 105.975 27.2352C106.103 27.5526 105.585 27.6891 105.463 27.3764C105.422 27.2737 105.356 27.183 105.271 27.1123C105.186 27.0416 105.085 26.9932 104.976 26.9714C104.868 26.9496 104.756 26.9552 104.65 26.9877C104.545 27.0201 104.449 27.0784 104.371 27.1572C104.124 27.3943 103.748 27.0199 103.997 26.7843V26.782ZM95.1305 25.3983C95.4376 25.0943 95.8259 24.8852 96.2487 24.796C96.6715 24.7068 97.1111 24.7412 97.5149 24.8952C97.8269 25.0192 97.6912 25.5324 97.3737 25.4069C97.0606 25.2787 96.7168 25.2451 96.3848 25.3103C96.0527 25.3754 95.7471 25.5365 95.5056 25.7735C95.2623 26.0137 94.8871 25.6385 95.1305 25.3983ZM96.4315 28.5183C96.3668 28.8537 95.8559 28.7102 95.9206 28.3771L96.1296 27.2945C96.1944 26.9591 96.7053 27.1018 96.6405 27.4349L96.4315 28.5183ZM91.0113 26.1861L89.7032 25.1799C89.4365 24.974 89.7032 24.5138 89.9708 24.722L91.2788 25.7282C91.5464 25.9334 91.2788 26.3943 91.0113 26.1861ZM102.769 30.9074C102.434 31.4674 101.978 31.9449 101.434 32.3044C100.927 32.6977 100.313 32.9276 99.6724 32.9635C98.3308 32.9471 97.3371 31.4324 97.1709 30.2335C97.1598 30.1884 97.1605 30.1413 97.1729 30.0966C97.1854 30.0519 97.2091 30.0111 97.2419 29.9783C97.2747 29.9454 97.3154 29.9215 97.3601 29.909C97.4047 29.8965 97.4519 29.8957 97.497 29.9067C99.1579 30.249 100.845 30.4505 102.54 30.5088C102.55 30.5102 102.56 30.5123 102.57 30.5151H102.576C102.622 30.5193 102.667 30.5373 102.704 30.5669C102.74 30.5965 102.767 30.6363 102.781 30.6812C102.798 30.7172 102.805 30.7565 102.803 30.7958C102.801 30.8352 102.789 30.8734 102.769 30.9074ZM104.781 29.6064C104.68 29.9316 104.168 29.792 104.271 29.4652L104.611 28.3732C104.712 28.0479 105.224 28.1876 105.122 28.5144C105.009 28.8784 104.896 29.2424 104.781 29.6064Z" fill="#A76C6C"/>
<path d="M102.708 21.7687C101.579 21.2247 100.36 20.8939 99.1112 20.7929C97.8594 20.595 96.5774 20.7367 95.399 21.2032C94.2206 21.6697 93.189 22.4438 92.4118 23.4449C92.3619 23.5011 92.3135 23.558 92.2652 23.6149C92.2269 23.5744 92.1872 23.5369 92.1466 23.4979C91.6909 23.0816 91.0886 22.8631 90.4719 22.8903C90.0838 22.9099 89.7079 23.0325 89.3828 23.2453C89.0576 23.4582 88.795 23.7538 88.6218 24.1017C88.4421 24.4524 88.3402 24.8378 88.3229 25.2315C88.3057 25.6252 88.3736 26.0181 88.5219 26.3832C88.7135 26.8253 89.0197 27.2082 89.4088 27.4923C89.55 27.5994 89.6994 27.6952 89.8557 27.7786C89.9886 27.8467 90.1256 27.9064 90.266 27.9572C90.032 31.6739 92.7363 34.9905 96.2213 36.0216C96.9458 36.2347 97.6926 36.3625 98.4467 36.4023C98.6846 36.4147 98.9225 36.4171 99.1604 36.4132C100.188 36.3972 101.207 36.2171 102.177 35.8797C103.816 35.3071 105.195 34.1682 106.068 32.6684C106.732 31.5297 107.099 30.2421 107.134 28.9244C107.139 28.7411 107.134 28.5586 107.128 28.3784C107.115 28.0325 107.078 27.688 107.017 27.3472C106.757 26.156 106.236 25.0374 105.491 24.0726C104.745 23.1077 103.795 22.3207 102.708 21.7687ZM102.656 35.1207C100.99 35.8758 99.1296 36.0928 97.3341 35.7416C95.5386 35.3905 93.8972 34.4886 92.638 33.1614C91.9866 32.4325 91.4885 31.5801 91.1734 30.6549C90.8582 29.7296 90.7324 28.7504 90.8034 27.7755C90.803 27.7175 90.7837 27.6612 90.7485 27.6151C90.7134 27.569 90.6642 27.5355 90.6084 27.5196C90.2733 27.4286 89.9608 27.2688 89.6908 27.0504C89.4207 26.8321 89.1991 26.56 89.0399 26.2513C88.9119 25.9664 88.8462 25.6574 88.8473 25.3451C88.8484 25.0327 88.9162 24.7242 89.0461 24.4402C89.1641 24.1616 89.3553 23.9202 89.5995 23.7417C89.8437 23.5631 90.1317 23.4541 90.4329 23.4262C90.7402 23.4 91.049 23.454 91.3292 23.5829C91.6093 23.7118 91.8512 23.9113 92.0312 24.1617C92.0493 24.1919 92.0732 24.2181 92.1014 24.239C92.1297 24.2599 92.1618 24.275 92.1959 24.2835C92.2301 24.292 92.2655 24.2936 92.3003 24.2884C92.335 24.2832 92.3684 24.2711 92.3985 24.253C92.4165 24.2428 92.4331 24.2302 92.4477 24.2155C93.2212 23.1996 94.2155 22.3727 95.3555 21.7975C96.3891 21.361 97.514 21.185 98.6315 21.2851C99.8252 21.3348 101 21.599 102.1 22.0651C103.146 22.5427 104.077 23.2393 104.83 24.1079C105.672 25.0722 106.249 26.2391 106.503 27.4939C106.773 29.0102 106.544 30.5732 105.851 31.9483C105.157 33.3234 104.036 34.4366 102.656 35.1207Z" fill="black"/>
<path d="M96.1307 27.293L95.9217 28.3756C95.8569 28.7087 96.3678 28.8522 96.4326 28.5168L96.6416 27.4334C96.7064 27.1003 96.1955 26.9576 96.1307 27.293ZM104.612 28.3701L104.272 29.4621C104.17 29.789 104.682 29.9301 104.783 29.6033L105.124 28.5113C105.226 28.1845 104.714 28.0449 104.612 28.3701ZM102.577 30.5151H102.572C102.562 30.5123 102.552 30.5102 102.542 30.5089C100.847 30.4505 99.1598 30.2491 97.4988 29.9067C97.4644 29.8984 97.4286 29.8969 97.3935 29.9023C97.3585 29.9078 97.3249 29.9201 97.2946 29.9386C97.2643 29.9571 97.238 29.9813 97.2171 30.01C97.1962 30.0387 97.1811 30.0712 97.1728 30.1056C97.1627 30.1477 97.1627 30.1915 97.1728 30.2336C97.3389 31.4332 98.3327 32.948 99.6743 32.9636C100.315 32.9276 100.929 32.6978 101.435 32.3045C101.98 31.945 102.436 31.4675 102.771 30.9075C102.791 30.8735 102.802 30.8352 102.805 30.7959C102.807 30.7565 102.799 30.7172 102.783 30.6813C102.769 30.6363 102.742 30.5965 102.706 30.5669C102.669 30.5374 102.624 30.5193 102.577 30.5151ZM101.202 31.824C100.783 32.1615 100.276 32.373 99.7413 32.4339C98.7507 32.4698 98.0292 31.4043 97.7695 30.4894C99.1857 30.764 100.619 30.9412 102.059 31.0198C101.813 31.3273 101.525 31.598 101.202 31.824Z" fill="black"/>
<path d="M89.5466 116.149C88.8997 115.605 88.2596 115.053 87.6262 114.492L86.2012 116.499C87.3249 116.489 88.4451 116.372 89.5466 116.149ZM98.7412 101.42C99.372 102.647 99.9768 103.889 100.556 105.144C102.424 109.124 103.909 113.273 104.99 117.534L106.622 115.678C107.528 114.65 108.501 113.684 109.425 112.672C110.234 111.786 111.04 110.89 111.777 109.942C112.063 109.583 112.316 109.198 112.533 108.793C112.77 108.378 112.91 107.914 112.943 107.437C112.946 106.982 112.867 106.529 112.709 106.101C112.365 105.207 111.842 104.392 111.175 103.704C110.507 103.017 109.707 102.471 108.823 102.101C107.841 101.691 106.823 101.364 105.813 101.034C104.762 100.691 103.707 100.364 102.646 100.045C101.698 99.9143 100.751 99.7863 99.8044 99.6467C99.0764 99.5396 98.3484 99.4289 97.6204 99.3145L97.7725 99.5937C98.1016 100.199 98.4245 100.808 98.7412 101.42ZM108.896 105.171C109.573 105.908 110.083 106.782 110.391 107.735C110.496 108.061 109.983 108.203 109.879 107.876C109.599 107.011 109.136 106.216 108.522 105.546C108.288 105.295 108.665 104.922 108.896 105.171Z" fill="#FFD35C"/>
<path d="M133.913 62.1768C132.611 58.4508 131.285 54.7325 129.986 51.0049L128.261 51.8512C128.147 52.496 127.956 53.1246 127.691 53.7232C127.21 54.8392 126.421 55.7955 125.417 56.4805C123.88 57.4753 122.077 57.9778 120.247 57.9211C120.237 57.9412 120.226 57.96 120.212 57.9773C119.145 59.162 118.009 60.282 116.809 61.3313C116.625 61.4915 116.439 61.6519 116.252 61.8126C116.525 62.612 116.685 63.4454 116.729 64.2891C116.81 65.6546 116.779 67.0244 116.636 68.3848C116.465 70.2428 116.178 72.0891 115.832 73.9228C116.649 73.3683 117.465 72.8113 118.286 72.2646C123.451 68.8357 128.687 65.5074 133.913 62.1768Z" fill="#CFF0FA"/>
<path d="M148.486 54.0957C148.595 54.1713 148.725 54.21 148.857 54.2062C148.989 54.2024 149.116 54.1563 149.22 54.0746C149.42 53.9135 149.58 53.7093 149.689 53.4773C149.798 53.2454 149.853 52.9917 149.85 52.7354C149.354 53.0422 148.846 53.3282 148.326 53.5934C148.297 53.6834 148.298 53.78 148.326 53.87C148.355 53.9599 148.411 54.0387 148.486 54.0957Z" fill="#FEE992"/>
<path d="M137.603 47.2683C135.244 48.431 132.882 49.5906 130.52 50.7471C131.81 54.4537 133.129 58.1509 134.424 61.8559L137.495 59.9012C141.005 57.6649 144.515 55.4295 147.999 53.1456C148.032 53.1239 148.071 53.112 148.111 53.1113C148.878 52.7207 149.621 52.2822 150.333 51.7986C150.879 51.4242 151.913 50.8314 151.792 50.028C151.71 49.4773 151.105 49.7121 150.736 49.794C150.298 49.8933 149.865 50.0116 149.437 50.1489C148.567 50.4299 147.723 50.7875 146.916 51.2175C146.614 51.3735 146.347 50.9195 146.648 50.7596C147.623 50.2398 148.648 49.8216 149.708 49.5116C150.23 49.3407 150.766 49.2184 151.31 49.1466C151.51 49.1149 151.714 49.1547 151.887 49.2588C152.06 49.363 152.191 49.5249 152.257 49.716C152.583 50.6254 151.803 51.3898 151.14 51.8758C150.937 52.0248 150.722 52.1535 150.516 52.2939C150.638 52.4506 150.72 52.6353 150.754 52.8313C150.763 52.9983 150.817 53.1598 150.91 53.2993C151.066 53.4506 151.341 53.3515 151.502 53.2587C152.213 52.85 152.305 51.7471 152.403 51.0256C152.652 49.1996 152.832 47.0148 151.539 45.5164C150.438 44.2973 148.721 43.9978 147.149 44.0656C143.747 44.2107 140.597 45.7863 137.603 47.2683ZM148.133 46.929C148.677 46.7525 149.234 46.622 149.8 46.539C150.134 46.4899 150.277 47.0008 149.941 47.0507C149.375 47.1337 148.818 47.2642 148.275 47.4407C147.949 47.5468 147.811 47.0343 148.133 46.929Z" fill="#FEE992"/>
<path d="M75.7661 98.0531C76.3199 101.522 78.2848 104.44 80.6263 106.972C81.8197 108.261 83.0794 109.497 84.3368 110.723C86.2577 112.595 88.2503 114.389 90.3147 116.105C90.3641 116.155 90.3914 116.224 90.3907 116.294C90.39 116.365 90.3612 116.433 90.3108 116.482C90.2793 116.513 90.2404 116.536 90.1977 116.548C89.601 116.7 88.9942 116.809 88.3819 116.875C87.0494 117.002 85.7109 117.054 84.3727 117.031C83.0794 117.031 81.794 117.063 80.5031 117.137C78.0566 117.174 75.6292 117.573 73.2998 118.322C72.0614 118.691 70.9239 119.339 69.9746 120.215C69.101 121.085 68.5853 122.251 68.5293 123.483C68.5968 124.116 68.796 124.729 69.114 125.28C69.4321 125.832 69.8621 126.312 70.3763 126.688C71.3843 127.535 72.5305 128.202 73.7647 128.661C74.9945 129.122 76.2823 129.411 77.5913 129.519C78.9626 129.634 80.3541 129.613 81.7292 129.617C84.3454 129.627 86.9638 129.56 89.5737 129.364C91.8243 129.213 94.0627 128.916 96.2747 128.475C98.0412 128.146 99.7607 127.601 101.395 126.853C102.628 126.324 103.701 125.482 104.508 124.409C105.165 123.42 105.413 122.215 105.197 121.047C104.901 119.349 104.52 117.667 104.054 116.008C102.344 110.154 99.9639 104.516 96.9619 99.2068C92.9871 98.5983 89.0495 97.7678 85.1675 96.7193C81.97 95.8474 78.8517 94.7074 75.8457 93.3115C75.5582 94.8769 75.5313 96.479 75.7661 98.0531ZM101.884 123.643L100.856 124.969C100.647 125.239 100.275 124.861 100.48 124.595L101.509 123.269C101.718 122.998 102.09 123.377 101.884 123.643Z" fill="#FFD35C"/>
<path d="M153.021 47.6831C152.906 46.7456 152.521 45.8616 151.914 45.1379C150.885 44.1133 149.491 43.5374 148.039 43.5358C146.35 43.4926 144.668 43.7569 143.074 44.3158C140.354 45.3118 137.709 46.5023 135.159 47.8781L130.059 50.3827C130.051 50.388 130.043 50.394 130.036 50.4006C129.993 50.4321 129.961 50.4758 129.943 50.526C129.925 50.5762 129.923 50.6306 129.936 50.6822C131.289 54.5681 132.673 58.4432 134.03 62.3276C134.051 62.3955 134.098 62.4524 134.161 62.4857C134.224 62.519 134.297 62.5261 134.365 62.5054L134.397 62.4929C134.404 62.4929 134.412 62.4929 134.419 62.4859C138.13 60.1233 141.845 57.7661 145.54 55.377C146.29 54.8918 147.038 54.4046 147.785 53.9153C147.86 54.1781 148.028 54.4047 148.257 54.5524C148.487 54.7001 148.763 54.7587 149.033 54.7171C149.379 54.6235 149.688 54.4243 149.915 54.1472C150.143 53.8701 150.278 53.5289 150.303 53.1711C150.313 53.242 150.33 53.3117 150.353 53.3794C150.412 53.5381 150.52 53.674 150.661 53.7676C150.803 53.8612 150.97 53.9077 151.139 53.9004C151.482 53.8555 151.804 53.7093 152.064 53.4805C152.323 53.2516 152.509 52.9506 152.596 52.6158C152.842 51.8442 152.986 51.044 153.026 50.2352C153.128 49.3875 153.127 48.5304 153.021 47.6831ZM149.223 54.0791C149.119 54.1608 148.991 54.2069 148.859 54.2107C148.727 54.2145 148.597 54.1757 148.489 54.1001C148.413 54.0432 148.358 53.9644 148.329 53.8744C148.3 53.7845 148.3 53.6879 148.328 53.5978C148.848 53.3336 149.356 53.0476 149.852 52.7398C149.855 52.9958 149.799 53.2491 149.689 53.4805C149.58 53.7119 149.419 53.9155 149.22 54.076L149.223 54.0791ZM152.403 51.0254C152.305 51.7469 152.213 52.8498 151.503 53.2585C151.341 53.3513 151.065 53.4504 150.91 53.2991C150.818 53.1594 150.764 52.998 150.754 52.8311C150.72 52.635 150.638 52.4504 150.516 52.2936C150.723 52.1532 150.939 52.0245 151.14 51.8756C151.803 51.3896 152.584 50.6276 152.257 49.7157C152.191 49.5246 152.061 49.3628 151.888 49.2586C151.714 49.1545 151.51 49.1147 151.311 49.1463C150.767 49.2183 150.23 49.3405 149.709 49.5114C148.649 49.8214 147.623 50.2396 146.649 50.7594C146.347 50.9154 146.614 51.3772 146.916 51.2173C147.723 50.7873 148.567 50.4297 149.437 50.1486C149.865 50.0114 150.297 49.8931 150.736 49.7938C151.106 49.7103 151.71 49.4755 151.793 50.0278C151.914 50.8312 150.882 51.4239 150.333 51.7983C149.621 52.282 148.879 52.7205 148.111 53.1111C148.071 53.1118 148.032 53.1237 147.999 53.1454C144.518 55.4293 141.006 57.6647 137.495 59.901L134.423 61.8549C133.127 58.1499 131.809 54.4527 130.518 50.7461C132.88 49.5881 135.241 48.4285 137.602 47.2673C140.596 45.7908 143.745 44.2121 147.146 44.0639C148.718 43.9952 150.435 44.2979 151.536 45.5139C152.829 47.0115 152.649 49.1963 152.397 51.0223L152.403 51.0254Z" fill="black"/>
<path d="M101.759 56.7886C102.424 56.9407 103.085 57.1178 103.73 57.3346C103.781 57.1001 103.85 56.87 103.938 56.6466C104.099 56.2515 104.302 55.8749 104.544 55.5234C104.485 55.5476 104.424 55.5702 104.365 55.5952C103.482 55.9614 102.613 56.3595 101.759 56.7886ZM111.082 64.3491C111.358 65.4308 111.368 66.5631 111.11 67.6493C111.048 68.028 110.868 68.3774 110.596 68.6485C110.328 68.8827 109.982 69.0077 109.626 68.9987C109.417 68.9858 109.213 68.9276 109.028 68.828C108.843 68.7285 108.683 68.5901 108.557 68.4223C108.496 68.8394 108.331 69.2345 108.077 69.5705C107.899 69.7868 107.655 69.9385 107.382 70.0021C107.109 70.0657 106.823 70.0376 106.568 69.9222C106.387 69.8301 106.227 69.7006 106.1 69.5424C105.972 69.3842 105.88 69.2007 105.828 69.0042C105.791 69.3456 105.672 69.673 105.482 69.9591C105.292 70.2452 105.036 70.4815 104.736 70.6484C104.506 70.7796 104.242 70.8381 103.978 70.816C103.714 70.794 103.463 70.6926 103.258 70.525C103.052 70.3575 102.903 70.1318 102.828 69.8776C102.754 69.6234 102.758 69.3526 102.841 69.1009C102.846 68.6722 102.694 68.2564 102.413 67.9326C102.132 67.6087 101.742 67.3994 101.317 67.3443C100.632 67.2454 99.9339 67.3068 99.277 67.5237C97.6866 67.8662 96.0946 68.2023 94.4956 68.5026C92.6751 68.8458 90.8452 69.1508 89.0029 69.3482C88.0102 69.4698 87.0108 69.5284 86.0108 69.5237C84.5813 71.2033 83.2267 72.9429 81.947 74.7426C80.075 77.3697 78.3473 80.0973 76.7077 82.8741C75.1657 85.4856 73.7039 88.143 72.2617 90.8114C74.5066 92.1467 76.8605 93.2895 79.2981 94.2278C83.8899 95.9428 88.6307 97.2286 93.4598 98.0685C98.2092 98.9554 103.002 99.5732 107.791 100.207C107.829 100.108 107.869 100.009 107.904 99.9101C108.544 98.159 109.114 96.3798 109.67 94.5975C108.761 95.2013 107.796 95.7169 106.789 96.1373C104.598 96.886 102.289 97.2281 99.9751 97.1466C97.7612 97.3035 95.546 96.8597 93.5635 95.8619C92.7162 95.3863 91.9822 94.7325 91.4123 93.9455C90.8238 93.064 90.4234 92.0707 90.236 91.0275C90.0185 89.8122 89.8959 88.5818 89.8694 87.3474C89.7171 82.9039 90.2925 78.4653 91.573 74.2076C91.5937 74.1421 91.6389 74.0872 91.6993 74.0544C91.7596 74.0216 91.8303 74.0136 91.8965 74.0318C91.9627 74.0501 92.0192 74.0934 92.0541 74.1525C92.0891 74.2116 92.0997 74.2819 92.0839 74.3487C91.7287 75.5307 91.4271 76.7267 91.1791 77.9367C90.7424 80.0766 90.4816 82.2486 90.3991 84.431C90.2811 86.4966 90.3813 88.5688 90.6978 90.6133C91.831 90.2858 92.9455 89.8965 94.0362 89.4472C96.1632 88.5538 98.2025 87.4646 100.128 86.1938C102.036 85.0031 103.859 83.6812 105.583 82.2377C105.525 82.116 105.474 81.9865 105.427 81.8695C105.299 81.5653 105.18 81.258 105.072 80.946C104.82 80.1344 104.661 79.2971 104.597 78.45C104.346 76.2492 104.293 74.0302 104.441 71.82C104.462 71.4807 104.994 71.4791 104.971 71.82C104.828 73.9548 104.871 76.098 105.1 78.2253C105.158 79.0766 105.311 79.9188 105.556 80.7362C105.664 81.0523 105.783 81.3643 105.912 81.6722C105.968 81.8288 106.038 81.9798 106.122 82.123C106.352 82.421 106.678 82.6296 107.045 82.7131C107.411 82.7965 107.796 82.7495 108.132 82.5801C108.813 82.2132 109.465 81.7939 110.082 81.3258C111.39 80.357 112.783 79.5083 114.244 78.7901C114.39 78.1731 114.535 77.5553 114.671 76.936C115.409 73.8208 115.911 70.6543 116.173 67.4637C116.28 66.1823 116.264 64.8935 116.125 63.6152C116.068 63.1265 115.965 62.6444 115.817 62.1753C115.022 62.8649 114.132 63.4358 113.174 63.8702C112.508 64.1454 111.801 64.3073 111.082 64.3491Z" fill="#CFF0FA"/>
<path d="M134.028 62.327C132.671 58.4426 131.287 54.5676 129.935 50.6816C129.921 50.6301 129.923 50.5757 129.941 50.5255C129.959 50.4753 129.991 50.4316 130.034 50.4C130.024 50.4021 130.013 50.4049 130.003 50.4086L128.333 51.2276C128.323 51.4046 128.305 51.5811 128.279 51.7564C128.274 51.7892 128.266 51.8204 128.261 51.8524L129.986 51.0061C131.285 54.7337 132.611 58.452 133.913 62.178C128.683 65.5086 123.449 68.8369 118.286 72.272C117.465 72.818 116.648 73.3757 115.832 73.9303C116.178 72.0942 116.466 70.2479 116.636 68.3923C116.779 67.0319 116.81 65.662 116.729 64.2965C116.685 63.4529 116.525 62.6194 116.252 61.82C116.111 61.9412 115.968 62.0608 115.824 62.1788C115.972 62.6479 116.075 63.13 116.132 63.6187C116.27 64.8971 116.286 66.1858 116.179 67.4672C115.917 70.6579 115.415 73.8243 114.678 76.9395C114.541 77.5588 114.397 78.1766 114.25 78.7936C114.448 78.7054 114.649 78.6298 114.851 78.5533C114.895 78.3654 114.941 78.1789 114.984 77.991C115.238 76.888 115.473 75.7799 115.69 74.6666C120.292 71.5224 124.988 68.5093 129.685 65.5063C131.245 64.5089 132.805 63.5136 134.365 62.5204C134.375 62.5125 134.385 62.5039 134.394 62.4947C134.362 62.5093 134.327 62.5175 134.292 62.5187C134.256 62.5199 134.221 62.5142 134.188 62.5018C134.155 62.4894 134.125 62.4706 134.099 62.4465C134.073 62.4224 134.053 62.3935 134.038 62.3613C134.034 62.3501 134.031 62.3387 134.028 62.327ZM107.793 100.208C103.005 99.5743 98.2119 98.9597 93.4625 98.0697C88.6334 97.2298 83.8926 95.944 79.3008 94.229C76.8632 93.2907 74.5093 92.1479 72.2645 90.8126C73.7043 88.1442 75.1661 85.4868 76.7105 82.8753C78.3485 80.0985 80.0785 77.3709 81.9497 74.7438C83.23 72.9477 84.5846 71.2081 86.0135 69.5248C85.7883 69.5199 85.5634 69.5087 85.3388 69.4913C84.7996 70.1335 84.2726 70.7853 83.7578 71.4468C83.6337 71.6028 83.5097 71.7588 83.388 71.9202C82.1692 73.5021 81.0059 75.1239 79.8983 76.7859C78.4943 78.8919 77.1683 81.0478 75.8891 83.2333C75.7542 83.4673 75.6231 83.7013 75.489 83.9307C74.4625 85.7065 73.4597 87.4963 72.4805 89.3002C72.2127 89.7931 71.9462 90.2871 71.681 90.7822C71.6468 90.8432 71.6376 90.9151 71.6553 90.9828C71.6731 91.0504 71.7164 91.1085 71.7762 91.1449C72.9345 91.8469 74.1287 92.4873 75.3455 93.0785L75.8454 93.3125C78.8506 94.7083 81.9682 95.8483 85.1649 96.7203C89.0458 97.7695 92.9824 98.6007 96.9561 99.2101L97.6246 99.3169C98.3526 99.4313 99.0806 99.5421 99.8086 99.6492C100.755 99.7888 101.702 99.9168 102.65 100.047C103.695 100.191 104.74 100.332 105.785 100.472L107.969 100.762C108.093 100.779 108.184 100.666 108.225 100.567C108.645 99.5369 108.974 98.4613 109.317 97.4075C109.672 96.321 110.014 95.2305 110.359 94.1401C110.133 94.2961 109.904 94.4521 109.672 94.5995C109.116 96.3818 108.547 98.161 107.907 99.9121C107.871 100.01 107.832 100.109 107.793 100.208ZM101.759 56.7898C102.613 56.3615 103.482 55.9626 104.365 55.594C104.424 55.5691 104.485 55.5465 104.544 55.5223C104.747 55.2265 104.97 54.9455 105.213 54.6814C105.139 54.7103 105.064 54.7431 104.986 54.7735C103.787 55.2456 102.609 55.7701 101.454 56.3467C101.281 56.4333 101.114 56.5285 100.942 56.6174C101.215 56.6712 101.487 56.7274 101.759 56.7898ZM125.207 42.4627C124.566 41.5413 123.712 40.7881 122.717 40.267C120.807 39.4106 118.796 38.7999 116.731 38.4496C116.44 38.3976 116.148 38.3506 115.855 38.3085C114.286 38.0855 112.704 37.9784 111.119 37.9879C109.109 38.006 107.102 38.1624 105.113 38.4559C103.339 38.5964 101.597 39.0177 99.9545 39.7039C99.2564 40.0352 98.6628 40.5519 98.2385 41.1976C98.1045 41.3795 98.008 41.5861 97.9544 41.8055C97.9009 42.025 97.8914 42.2529 97.9265 42.476C97.9755 42.6415 98.0612 42.7937 98.1772 42.9215C98.2932 43.0493 98.4365 43.1492 98.5965 43.2139C98.9634 43.355 99.3488 43.4423 99.7407 43.4728L101.162 43.6702L102.717 43.8862C102.993 43.8804 103.266 43.9336 103.519 44.0422C103.553 44.0719 103.58 44.108 103.599 44.1482C103.619 44.1885 103.631 44.2322 103.633 44.2769C103.636 44.3216 103.63 44.3664 103.615 44.4087C103.6 44.451 103.578 44.49 103.548 44.5235C103.518 44.556 103.482 44.5825 103.442 44.6015C103.254 44.6576 103.059 44.689 102.863 44.6951C102.638 44.7271 102.411 44.7598 102.188 44.8043C101.778 44.8737 101.382 45.0108 101.018 45.2099C100.706 45.3909 100.277 45.7005 100.269 46.0975C100.254 46.7707 101.345 46.9181 101.834 46.9758C102.033 46.9992 102.233 47.0117 102.433 47.0179C102.681 47.0257 102.929 47.0226 103.177 47.0179C103.425 47.0133 103.692 46.9977 103.948 46.9836C104.529 46.912 105.116 46.9094 105.697 46.9758C105.8 46.9945 106.024 47.0616 106.026 47.1147C106.035 47.3487 105.536 47.3869 105.386 47.4079C104.581 47.43 103.802 47.6934 103.149 48.1638C103.023 48.2671 102.919 48.3942 102.842 48.5377C102.765 48.6813 102.718 48.8386 102.702 49.0006C102.686 49.1625 102.703 49.326 102.75 49.4817C102.797 49.6374 102.875 49.7822 102.979 49.9078C103.026 49.9656 103.078 50.0194 103.135 50.0685C103.528 50.2873 103.973 50.3951 104.423 50.3805C104.858 50.4016 105.295 50.4047 105.731 50.4055C106.226 50.4055 106.72 50.393 107.213 50.3883C107.223 50.2113 107.249 50.0356 107.291 49.8634C107.32 49.7521 107.356 49.6427 107.398 49.5358C107.556 49.1126 107.835 48.7455 108.2 48.4804C108.566 48.2153 109.001 48.0642 109.453 48.046C110.251 48.0161 111.035 48.2642 111.671 48.748C111.761 47.6669 112.105 46.6222 112.673 45.6982C113.703 44.2431 115.186 43.1701 116.89 42.6468C118.608 42.0408 120.449 41.8683 122.249 42.1445C123.302 42.3089 124.301 42.7156 125.17 43.3324C125.484 43.5598 125.774 43.8183 126.036 44.1039C126.167 44.2474 126.285 44.401 126.402 44.5547C126.099 43.8069 125.697 43.1032 125.207 42.4627Z" fill="black"/>
<path d="M104.341 57.0896C104.297 57.2302 104.262 57.3731 104.234 57.5178C105.8 58.0585 107.248 58.8953 108.498 59.9826C109.637 61.0257 110.478 62.3532 110.934 63.8288C112.031 63.7705 113.095 63.4283 114.021 62.8358C115.099 62.1225 116.111 61.3132 117.044 60.4178C117.916 59.6192 118.753 58.7817 119.55 57.9078C118.844 57.8719 118.14 57.7895 117.444 57.6613C116.185 57.4872 114.996 56.975 114.005 56.1793C113.155 55.3772 112.538 54.3611 112.217 53.2379C111.833 53.4907 111.4 53.6611 110.947 53.7384C110.494 53.8157 110.029 53.7983 109.583 53.6872C109.066 53.5476 108.594 53.2762 108.213 52.8994C108.036 53.0164 107.856 53.1272 107.683 53.2512C106.336 54.2106 104.858 55.4492 104.341 57.0896Z" fill="#FEE992"/>
<path d="M105.214 54.6772C104.971 54.9412 104.748 55.2222 104.545 55.518C104.303 55.8695 104.099 56.2461 103.938 56.6412C103.85 56.8646 103.781 57.0947 103.73 57.3292C103.9 57.3853 104.067 57.4516 104.234 57.5132C104.262 57.3686 104.297 57.2256 104.341 57.085C104.858 55.447 106.336 54.2092 107.685 53.2459C107.858 53.1218 108.038 53.0119 108.215 52.8941C108.086 52.77 107.968 52.636 107.86 52.4932C107.794 52.5376 107.726 52.5774 107.662 52.6219C106.771 53.2132 105.95 53.9026 105.214 54.6772ZM120.213 57.9789C120.227 57.9616 120.238 57.9428 120.248 57.9227C120.014 57.9227 119.78 57.9227 119.55 57.9071C118.753 58.7814 117.917 59.6189 117.043 60.4172C116.111 61.3126 115.099 62.1219 114.021 62.8352C113.095 63.4277 112.031 63.7698 110.934 63.8281C110.988 64.0005 111.04 64.1737 111.083 64.3499C111.804 64.3092 112.513 64.1473 113.181 63.871C114.139 63.4366 115.03 62.8657 115.824 62.1761C115.969 62.0575 116.111 61.9374 116.253 61.8173C116.441 61.6576 116.627 61.4972 116.81 61.336C118.01 60.2857 119.146 59.1647 120.213 57.9789ZM90.4073 84.431C90.4878 82.2487 90.7472 80.0767 91.1826 77.9368C91.4291 76.7278 91.7307 75.5318 92.0874 74.3488C92.1033 74.282 92.0926 74.2116 92.0576 74.1525C92.0227 74.0934 91.9662 74.0502 91.9 74.0319C91.8338 74.0136 91.7631 74.0217 91.7028 74.0544C91.6425 74.0872 91.5972 74.1421 91.5765 74.2076C90.2959 78.4653 89.7207 82.9039 89.8738 87.3475C89.8999 88.5818 90.0222 89.8122 90.2396 91.0275C90.2226 90.9597 90.2324 90.888 90.267 90.8272C90.3016 90.7665 90.3583 90.7215 90.4252 90.7015C90.5196 90.6749 90.6109 90.6406 90.7052 90.6133C90.3886 88.5688 90.2887 86.4965 90.4073 84.431ZM105.563 80.7346C105.319 79.9172 105.166 79.0751 105.107 78.2238C104.879 76.0964 104.836 73.9533 104.978 71.8184C105.001 71.4776 104.47 71.4791 104.448 71.8184C104.301 74.0286 104.353 76.2476 104.604 78.4484C104.669 79.2955 104.828 80.1327 105.079 80.9444C105.187 81.2564 105.307 81.5638 105.435 81.868C105.484 81.985 105.535 82.1144 105.591 82.2361C105.641 82.1932 105.694 82.1534 105.747 82.1098C105.797 82.061 105.864 82.0337 105.934 82.0337C106.004 82.0337 106.071 82.061 106.121 82.1098L106.133 82.1215C106.049 81.9782 105.978 81.8273 105.923 81.6706C105.793 81.3633 105.673 81.0513 105.563 80.7346Z" fill="black"/>
<path d="M112.422 80.3952C111.262 81.1276 110.16 81.9505 109.008 82.6892C108.503 83.0798 107.886 83.2953 107.248 83.3031C106.742 83.2478 106.27 83.0181 105.915 82.6533C104.983 83.4495 104.012 84.1977 103.005 84.895C101.083 86.2882 99.0681 87.5485 96.9745 88.6671C95.0048 89.687 92.9413 90.5143 90.8125 91.1374C90.9011 91.5438 91.0179 91.9436 91.1619 92.3339C91.5401 93.246 92.1218 94.0595 92.8627 94.7122C93.6035 95.3649 94.4839 95.8396 95.4363 96.0997C97.6461 96.6575 99.9401 96.8006 102.202 96.5217C103.323 96.4633 104.435 96.2916 105.521 96.0093C106.593 95.6905 107.618 95.2312 108.569 94.6435C109.715 93.9612 110.81 93.1964 111.845 92.355C113.962 90.6483 115.975 88.8192 118.049 87.0634C118.299 86.8388 118.562 86.6287 118.836 86.434C118.981 86.31 119.163 86.2367 119.354 86.2251C119.545 86.2136 119.734 86.2645 119.893 86.37C120.194 86.6438 120.111 87.15 120.007 87.4932C119.898 87.8575 119.658 88.1664 119.576 88.5392C119.48 88.9682 119.465 89.5181 120.009 89.5813C120.552 89.6445 120.789 89.2568 121.043 88.8684C121.768 87.7803 122.361 86.6105 122.812 85.3833C123.002 84.764 123.062 84.1121 122.989 83.4684C122.973 82.4355 122.694 81.4236 122.179 80.5278C121.495 79.5456 120.453 78.8707 119.276 78.648C116.811 78.1005 114.47 79.1028 112.422 80.3952ZM121.015 80.7345C121.364 80.892 121.699 81.0786 122.016 81.2922C122.299 81.4818 122.033 81.9412 121.749 81.7501C121.431 81.5364 121.096 81.3499 120.747 81.1924C120.436 81.052 120.706 80.5949 121.015 80.7345ZM96.8817 94.0632C96.3905 94.1681 95.8779 94.0877 95.4425 93.8374C95.0071 93.5872 94.6795 93.1847 94.523 92.7075C94.4192 92.3807 94.9317 92.2395 95.0346 92.5663C95.1506 92.9098 95.3878 93.1993 95.7018 93.3806C96.0157 93.562 96.385 93.6227 96.7405 93.5515C97.0736 93.4774 97.2147 93.9898 96.8817 94.0632Z" fill="#FEE992"/>
<path d="M114.251 78.7901C112.79 79.5084 111.397 80.3571 110.089 81.3259C109.473 81.7941 108.821 82.2135 108.139 82.5801C107.803 82.7495 107.419 82.7965 107.052 82.7131C106.686 82.6297 106.359 82.421 106.13 82.123L106.118 82.1113C106.068 82.0626 106.001 82.0353 105.931 82.0353C105.861 82.0353 105.794 82.0626 105.744 82.1113C105.694 82.155 105.641 82.1948 105.588 82.2377C103.863 83.6812 102.04 85.0031 100.133 86.1939C98.2071 87.4647 96.1677 88.5538 94.0407 89.4472C92.95 89.8966 91.8355 90.2858 90.7023 90.6133C90.6079 90.6406 90.5167 90.675 90.4223 90.7015C90.3553 90.7215 90.2987 90.7665 90.2641 90.8273C90.2295 90.888 90.2197 90.9597 90.2366 91.0275C90.424 92.0707 90.8244 93.064 91.4129 93.9455C91.983 94.7323 92.7169 95.3862 93.5641 95.862C95.547 96.8596 97.7624 97.3035 99.9765 97.1466C102.29 97.2277 104.599 96.8857 106.79 96.1373C107.797 95.7169 108.761 95.2014 109.67 94.5976C109.904 94.447 110.131 94.2965 110.357 94.1382C110.632 93.9447 110.903 93.7482 111.171 93.5477C113.079 92.0922 114.884 90.5057 116.693 88.9293L117.329 88.3771L117.83 87.9411C118.173 87.6454 118.516 87.3475 118.869 87.0636C119.007 86.9276 119.174 86.8247 119.358 86.7625C119.817 86.6486 119.378 87.6205 119.284 87.81C118.945 88.48 118.725 89.622 119.573 90.0057C119.845 90.1219 120.147 90.146 120.434 90.0743C120.72 90.0026 120.976 89.8391 121.161 89.6087C121.501 89.1539 121.806 88.673 122.071 88.1704C122.43 87.5355 122.755 86.882 123.044 86.2126C123.293 85.7127 123.458 85.175 123.531 84.6214C123.599 83.6219 123.5 82.6182 123.238 81.6511C123.103 81.1607 122.898 80.6921 122.63 80.2596C121.419 78.4118 119.097 77.78 116.993 78.0101C116.258 78.098 115.538 78.2794 114.849 78.5499C114.651 78.6232 114.449 78.7012 114.251 78.7901ZM119.272 78.6474C120.449 78.8701 121.491 79.5449 122.175 80.5272C122.69 81.4229 122.969 82.4348 122.985 83.4678C123.058 84.1117 122.998 84.7639 122.808 85.3834C122.357 86.6103 121.763 87.7798 121.039 88.8677C120.787 89.2577 120.542 89.6422 120.005 89.5806C119.467 89.519 119.476 88.9675 119.572 88.5385C119.655 88.1657 119.895 87.8568 120.003 87.4926C120.107 87.1455 120.189 86.6431 119.889 86.3694C119.73 86.2639 119.54 86.2131 119.35 86.2247C119.159 86.2362 118.977 86.3094 118.831 86.4333C118.558 86.6278 118.295 86.838 118.046 87.0628C115.97 88.8186 113.958 90.6508 111.841 92.3543C110.806 93.1957 109.711 93.9606 108.565 94.6428C107.615 95.2303 106.591 95.6896 105.52 96.0086C104.434 96.2909 103.322 96.4626 102.201 96.5211C99.9391 96.7999 97.6451 96.6569 95.4354 96.0991C94.4829 95.8389 93.6025 95.3643 92.8617 94.7116C92.1208 94.0589 91.5391 93.2453 91.161 92.3332C91.0169 91.943 90.9001 91.5432 90.8115 91.1367C92.9403 90.5136 95.0038 89.6864 96.9735 88.6665C99.0671 87.5478 101.082 86.2875 103.004 84.8944C104.011 84.197 104.982 83.4488 105.914 82.6527C106.269 83.0174 106.741 83.2472 107.247 83.3024C107.885 83.2947 108.502 83.0792 109.007 82.6885C110.162 81.9499 111.261 81.1285 112.421 80.3946C114.469 79.1021 116.81 78.0998 119.271 78.6474H119.272Z" fill="black"/>
<path d="M89.5756 68.7543C92.8649 68.3596 96.112 67.6623 99.3483 66.9681C99.9964 66.774 100.679 66.7208 101.349 66.8121C101.754 66.8795 102.137 67.0419 102.466 67.286C102.796 67.5301 103.063 67.8488 103.246 68.2161C103.378 68.6114 103.41 69.0332 103.339 69.4438C103.322 69.5683 103.337 69.6949 103.383 69.812C103.428 69.9291 103.502 70.0328 103.598 70.1136C103.694 70.1944 103.809 70.2497 103.933 70.2743C104.056 70.2988 104.183 70.292 104.303 70.2543C105.33 69.9992 105.389 68.6404 105.412 67.798C105.414 67.7351 105.438 67.675 105.481 67.6283C105.523 67.5817 105.58 67.5514 105.643 67.5429C105.705 67.5344 105.768 67.5482 105.821 67.5819C105.875 67.6156 105.914 67.667 105.933 67.7271L106.211 68.5141C106.272 68.7805 106.381 69.0339 106.531 69.2621C106.598 69.3361 106.678 69.3962 106.768 69.4392C106.857 69.4821 106.954 69.507 107.054 69.5123C107.153 69.5177 107.252 69.5034 107.346 69.4704C107.44 69.4374 107.526 69.3862 107.6 69.3198L107.615 69.3058C107.82 69.0355 107.963 68.7239 108.035 68.3927C108.107 68.0614 108.106 67.7185 108.031 67.3878C108.013 67.3199 108.022 67.2474 108.056 67.1862C108.091 67.125 108.149 67.0801 108.216 67.0613C108.284 67.0426 108.357 67.0516 108.418 67.0864C108.479 67.1211 108.524 67.1787 108.543 67.2466C108.732 67.9166 109.347 68.8503 110.143 68.3386C110.389 68.1478 110.549 67.8674 110.59 67.5586C110.683 67.1964 110.739 66.8259 110.759 66.4525C110.795 65.7091 110.71 64.9648 110.509 64.2483C110.092 62.7563 109.266 61.411 108.123 60.3654C107.055 59.4278 105.829 58.6882 104.501 58.1814C100.51 56.6074 96.1472 56.5497 91.9211 56.3398C90.5831 57.3838 89.3893 58.6002 88.3705 59.9575C86.994 61.8111 85.9748 63.905 85.3652 66.132C85.1022 67.0423 84.9333 67.9772 84.8613 68.922C86.4335 69.0664 88.0177 69.0101 89.5756 68.7543ZM104.52 64.9479L104.005 64.3848C103.771 64.1336 104.148 63.7608 104.38 64.0096L104.896 64.5727C105.126 64.8239 104.751 65.1967 104.52 64.9479ZM107.406 62.5042L108.098 63.4347C108.302 63.7085 107.842 63.9729 107.64 63.7023L106.949 62.7717C106.745 62.4972 107.205 62.2327 107.406 62.5042Z" fill="#A76C6C"/>
<path d="M108.498 59.9818C107.248 58.8944 105.8 58.0576 104.234 57.5169C104.066 57.4553 103.9 57.389 103.73 57.3329C102.817 57.0352 101.886 56.7955 100.943 56.6153C100.807 56.588 100.672 56.5575 100.535 56.5326C99.0721 56.2788 97.5955 56.1093 96.1128 56.0248C95.9131 56.0116 95.7142 55.9967 95.5145 55.985C94.7678 55.9403 94.0213 55.8998 93.2751 55.8634L92.4951 55.8243C92.281 55.7946 92.0646 55.7831 91.8485 55.79L91.9047 55.801C92.2408 55.8579 92.0973 56.3696 91.7635 56.3126C91.5851 56.2819 91.408 56.2447 91.2323 56.2011L90.9453 56.4351C90.6629 56.6748 90.387 56.9228 90.1177 57.1792C89.1518 58.0985 88.2837 59.1153 87.5273 60.2134C86.3409 61.9406 85.4478 63.8518 84.8839 65.87C84.6029 66.8326 84.42 67.8212 84.3379 68.8207C84.4416 68.8402 84.5454 68.8605 84.6499 68.8784C84.9861 68.9377 84.8433 69.4486 84.5095 69.3901C84.7841 69.4353 85.0617 69.4642 85.3394 69.486C85.564 69.5032 85.7889 69.5144 86.0141 69.5196C87.0142 69.5243 88.0135 69.4657 89.0062 69.3441C90.8486 69.1468 92.6792 68.8418 94.499 68.4986C96.098 68.1983 97.6899 67.8621 99.2803 67.5197C99.9372 67.3027 100.635 67.2413 101.32 67.3403C101.745 67.3953 102.135 67.6046 102.416 67.9285C102.697 68.2523 102.85 68.6681 102.844 69.0968C102.76 69.3488 102.755 69.6203 102.829 69.8754C102.902 70.1306 103.052 70.3573 103.257 70.5255C103.463 70.6938 103.715 70.7957 103.979 70.8177C104.244 70.8398 104.509 70.781 104.74 70.649C105.04 70.4822 105.296 70.2458 105.486 69.9597C105.676 69.6736 105.794 69.3462 105.832 69.0048C105.883 69.2013 105.976 69.3846 106.103 69.5429C106.231 69.7011 106.39 69.8306 106.571 69.9228C106.826 70.0382 107.112 70.0663 107.385 70.0027C107.658 69.9391 107.902 69.7874 108.08 69.5711C108.335 69.2351 108.5 68.84 108.56 68.4229C108.686 68.5907 108.847 68.7291 109.031 68.8287C109.216 68.9282 109.42 68.9864 109.629 68.9993C109.985 69.0083 110.332 68.8833 110.6 68.6491C110.871 68.378 111.051 68.0286 111.114 67.6499C111.371 66.5637 111.361 65.4314 111.086 64.3497C111.042 64.1743 110.992 64.0002 110.937 63.8279C110.48 62.3524 109.64 61.0249 108.501 59.9818H108.498ZM85.3644 66.1203C85.974 63.8934 86.9932 61.7995 88.3697 59.9459C89.3882 58.5884 90.5821 57.372 91.9203 56.3282C96.1463 56.5381 100.509 56.5958 104.5 58.1698C105.828 58.6766 107.054 59.4162 108.122 60.3538C109.265 61.3993 110.091 62.7442 110.508 64.2359C110.709 64.9526 110.794 65.6972 110.758 66.4409C110.739 66.8145 110.682 67.1853 110.59 67.5477C110.549 67.8566 110.389 68.137 110.143 68.3277C109.347 68.841 108.732 67.9073 108.543 67.2357C108.524 67.1679 108.479 67.1103 108.418 67.0755C108.357 67.0408 108.284 67.0318 108.216 67.0505C108.149 67.0692 108.091 67.1141 108.056 67.1753C108.021 67.2366 108.012 67.3091 108.031 67.3769C108.106 67.7076 108.107 68.0506 108.035 68.3818C107.963 68.7131 107.82 69.0247 107.615 69.2949C107.543 69.3634 107.458 69.417 107.366 69.4527C107.273 69.4883 107.174 69.5053 107.075 69.5027C106.975 69.5001 106.877 69.4779 106.786 69.4375C106.696 69.397 106.614 69.339 106.545 69.2669L106.531 69.2513C106.381 69.0231 106.272 68.7697 106.211 68.5032C106.118 68.2432 106.026 67.9809 105.933 67.7162C105.914 67.6562 105.875 67.6048 105.821 67.5711C105.768 67.5374 105.705 67.5236 105.643 67.5321C105.58 67.5405 105.523 67.5708 105.481 67.6175C105.438 67.6642 105.414 67.7243 105.412 67.7872C105.389 68.6296 105.334 69.9884 104.303 70.2434C104.183 70.2809 104.056 70.2876 103.933 70.263C103.81 70.2383 103.695 70.183 103.599 70.1023C103.503 70.0215 103.429 69.9179 103.383 69.8009C103.338 69.684 103.322 69.5574 103.339 69.433C103.41 69.0224 103.378 68.6006 103.246 68.2053C103.063 67.838 102.796 67.5192 102.466 67.2752C102.136 67.0311 101.754 66.8687 101.349 66.8013C100.679 66.71 99.9963 66.7631 99.3482 66.9573C96.112 67.6531 92.8648 68.3488 89.5756 68.7435C88.0171 68.9953 86.433 69.0478 84.8613 68.8995C84.9337 67.9584 85.1023 67.0271 85.3644 66.1203Z" fill="black"/>
<path d="M125.196 44.0276C124.315 43.2935 123.245 42.82 122.109 42.6602C119.476 42.2772 116.795 42.9075 114.608 44.4238C113.859 44.995 113.25 45.7287 112.826 46.5695C112.403 47.4103 112.175 48.3363 112.161 49.2777C112.159 49.349 112.129 49.4165 112.077 49.4655C112.025 49.5145 111.956 49.5409 111.885 49.539C111.819 49.5369 111.756 49.5108 111.708 49.4657C111.339 49.0731 110.864 48.7961 110.341 48.6683C109.818 48.5405 109.269 48.5674 108.76 48.7458C108.374 48.9723 108.069 49.3163 107.891 49.7278C107.714 50.1392 107.672 50.5967 107.772 51.0335C107.853 51.5029 108.057 51.9424 108.363 52.3071C108.67 52.6719 109.067 52.9489 109.515 53.1099C109.964 53.2708 110.447 53.31 110.915 53.2234C111.383 53.1368 111.82 52.9275 112.181 52.6169C112.233 52.5676 112.302 52.5408 112.373 52.5423C112.445 52.5437 112.512 52.5734 112.562 52.6247C112.591 52.6559 112.613 52.6933 112.625 52.7339C112.928 54.0943 113.707 55.3016 114.822 56.1378C116.017 56.8399 117.364 57.2429 118.747 57.3125C121.256 57.5723 123.994 57.2267 125.896 55.4195C126.761 54.5588 127.363 53.4708 127.635 52.2815C127.892 51.0205 127.851 49.7169 127.516 48.4743C127.238 46.7823 126.425 45.2238 125.196 44.0276ZM126.035 49.7707C126.067 49.8313 126.074 49.9017 126.055 49.9674C126.036 50.0331 125.993 50.089 125.934 50.1236C125.875 50.1581 125.805 50.1686 125.738 50.1528C125.671 50.1371 125.614 50.0963 125.576 50.039C125.313 49.5927 125.229 49.0628 125.342 48.557C125.412 48.2224 125.923 48.3644 125.854 48.6974C125.774 49.0651 125.839 49.4495 126.035 49.7707ZM125.777 46.2607C125.299 46.3848 124.847 46.5918 124.441 46.8722C124.159 47.0657 123.895 46.6062 124.174 46.4144C124.619 46.1093 125.114 45.8841 125.636 45.749C125.67 45.7398 125.705 45.7373 125.74 45.7416C125.774 45.746 125.808 45.7571 125.838 45.7743C125.868 45.7916 125.895 45.8146 125.916 45.8421C125.937 45.8696 125.953 45.9011 125.962 45.9347C125.972 45.9683 125.974 46.0033 125.97 46.0379C125.965 46.0725 125.954 46.1059 125.937 46.1361C125.92 46.1664 125.897 46.193 125.869 46.2144C125.842 46.2357 125.81 46.2515 125.777 46.2607ZM124.367 50.3814C124.143 51.9414 123.189 53.6044 121.481 53.7768C119.773 53.9492 118.943 52.2839 118.302 50.9852C118.279 50.9447 118.267 50.8991 118.268 50.8527C118.268 50.8064 118.28 50.7609 118.303 50.7207C118.326 50.6805 118.36 50.647 118.4 50.6235C118.44 50.6 118.485 50.5873 118.531 50.5866C120.37 50.5751 122.205 50.3991 124.012 50.0609C124.047 50.0515 124.084 50.0499 124.119 50.0562C124.194 50.0644 124.262 50.1019 124.309 50.1604C124.356 50.2188 124.378 50.2935 124.37 50.3682V50.3791L124.367 50.3814ZM117.134 49.2231C117.088 49.5611 117.103 49.9044 117.177 50.2371C117.255 50.5702 116.742 50.7114 116.666 50.3783C116.576 49.999 116.555 49.6068 116.603 49.22C116.646 48.8854 117.176 48.8823 117.134 49.22V49.2231ZM114.404 48.0235C114.584 47.6328 114.845 47.2844 115.169 47.0008C115.492 46.7173 115.872 46.505 116.283 46.3777C116.61 46.2747 116.751 46.7872 116.425 46.8894C116.08 46.9997 115.763 47.1819 115.494 47.4239C115.225 47.6659 115.01 47.9623 114.865 48.2934C114.723 48.6054 114.266 48.3339 114.406 48.0258L114.404 48.0235ZM108.922 51.0897C108.586 51.0429 108.73 50.532 109.064 50.5788C109.595 50.6505 110.133 50.6638 110.668 50.6186C111.009 50.5913 111.006 51.1217 110.668 51.149C110.086 51.1936 109.5 51.1737 108.922 51.0897Z" fill="#FEE992"/>
<path d="M125.168 43.3383C124.3 42.7215 123.3 42.3148 122.248 42.1504C120.448 41.8743 118.607 42.0466 116.889 42.6519C115.185 43.1759 113.702 44.2491 112.672 45.7041C112.104 46.6281 111.76 47.6728 111.67 48.7539C111.034 48.2701 110.25 48.022 109.451 48.0519C109 48.0701 108.565 48.2212 108.199 48.4863C107.833 48.7514 107.554 49.1185 107.397 49.5417C107.355 49.6485 107.319 49.7579 107.291 49.8693C107.248 50.0415 107.222 50.2172 107.213 50.3942C107.175 51.1485 107.404 51.892 107.859 52.4948C107.966 52.64 108.084 52.7764 108.213 52.9027C108.593 53.2795 109.065 53.5509 109.582 53.6905C110.029 53.8018 110.493 53.8193 110.947 53.742C111.4 53.6646 111.832 53.4941 112.216 53.2412C112.537 54.3644 113.155 55.3805 114.004 56.1826C114.996 56.9783 116.185 57.4905 117.444 57.6646C118.14 57.7928 118.843 57.8751 119.55 57.9111C119.784 57.9228 120.018 57.9267 120.247 57.9267C122.077 57.9834 123.881 57.4808 125.418 56.486C126.422 55.8011 127.211 54.8448 127.692 53.7287C127.957 53.1302 128.148 52.5015 128.261 51.8567C128.267 51.8247 128.274 51.7935 128.28 51.7608C128.306 51.5837 128.323 51.4074 128.334 51.2319C128.357 50.7106 128.331 50.1883 128.256 49.6719C128.09 47.8367 127.452 46.0756 126.403 44.5606C126.286 44.4046 126.169 44.2533 126.037 44.1098C125.775 43.8239 125.483 43.5654 125.168 43.3383ZM127.632 52.2826C127.361 53.4719 126.758 54.5599 125.894 55.4205C123.992 57.2278 121.254 57.5733 118.745 57.3136C117.361 57.244 116.015 56.841 114.82 56.1389C113.705 55.3027 112.926 54.0954 112.623 52.735C112.609 52.691 112.585 52.6512 112.552 52.6193C112.519 52.5875 112.478 52.5646 112.434 52.5529C112.389 52.5411 112.342 52.541 112.298 52.5524C112.253 52.5638 112.212 52.5864 112.179 52.618C111.818 52.9286 111.381 53.1379 110.913 53.2245C110.444 53.3111 109.961 53.2719 109.513 53.1109C109.065 52.95 108.667 52.673 108.361 52.3082C108.055 51.9434 107.851 51.504 107.77 51.0346C107.67 50.5977 107.711 50.1403 107.889 49.7289C108.067 49.3174 108.371 48.9734 108.758 48.7469C109.266 48.5685 109.815 48.5416 110.339 48.6694C110.862 48.7972 111.337 49.0742 111.706 49.4668C111.757 49.5156 111.827 49.5419 111.898 49.5399C111.969 49.5378 112.036 49.5076 112.085 49.4559C112.131 49.408 112.157 49.3449 112.159 49.2788C112.173 48.3374 112.4 47.4113 112.824 46.5706C113.248 45.7298 113.857 44.9961 114.606 44.4249C116.793 42.9086 119.473 42.2783 122.107 42.6613C123.243 42.821 124.312 43.2946 125.194 44.0286C126.423 45.2247 127.236 46.7828 127.514 48.4746C127.849 49.7174 127.89 51.0214 127.632 52.2826ZM91.7602 56.3168C92.094 56.3737 92.2376 55.862 91.9014 55.8051L91.8452 55.7934C91.2892 55.743 90.7524 55.5639 90.2775 55.2702C89.8026 54.9766 89.4026 54.5765 89.109 54.1016C88.6801 53.096 88.5651 51.9842 88.779 50.9121C88.8841 50.168 89.0328 49.4307 89.2244 48.704C89.2336 48.6704 89.2362 48.6353 89.2318 48.6007C89.2275 48.5661 89.2164 48.5328 89.1991 48.5025C89.1819 48.4722 89.1589 48.4456 89.1313 48.4243C89.1038 48.4029 89.0724 48.3871 89.0388 48.3779C89.0052 48.3687 88.9701 48.3662 88.9355 48.3705C88.901 48.3749 88.8676 48.386 88.8373 48.4032C88.807 48.4205 88.7805 48.4435 88.7591 48.471C88.7377 48.4985 88.722 48.53 88.7127 48.5636C88.1605 50.7577 87.4827 53.9027 89.623 55.49C90.1057 55.8324 90.6516 56.0755 91.229 56.2052C91.4053 56.2473 91.5831 56.2848 91.7602 56.3168Z" fill="black"/>
<path d="M116.602 49.2236C116.554 49.6104 116.576 50.0027 116.665 50.3819C116.743 50.715 117.253 50.5738 117.176 50.2407C117.102 49.908 117.087 49.5647 117.133 49.2267C117.176 48.8859 116.645 48.889 116.602 49.2236ZM84.648 68.8835C84.5443 68.8656 84.4406 68.8453 84.336 68.8258C81.9135 68.4577 79.5637 67.7121 77.3722 66.6161C75.9474 65.8953 74.7314 64.821 73.8404 63.4961C72.4473 61.3011 72.342 58.5626 72.1322 56.0455C72.0166 54.5158 72.0574 52.9782 72.2538 51.4568C72.4257 49.9136 72.781 48.3964 73.3123 46.9374C73.4332 46.6176 72.9223 46.4796 72.8006 46.797C71.2593 50.8811 71.36 55.377 71.9785 59.6343C72.1382 60.9399 72.5346 62.2055 73.1485 63.3689C73.9555 64.7561 75.107 65.9114 76.4916 66.7229C78.9745 68.1045 81.6932 69.0113 84.5084 69.3968C84.8415 69.4537 84.9842 68.9428 84.648 68.8835ZM65.1161 129.324C64.6644 128.543 64.0062 127.901 63.2136 127.469C63.0576 127.59 62.8876 127.703 62.723 127.816C62.3456 128.083 61.9532 128.329 61.5476 128.55C60.9444 128.885 60.303 129.145 59.6373 129.326C59.0577 129.485 58.4514 129.522 57.8566 129.436C57.8137 129.428 57.7746 129.406 57.7451 129.374C57.7021 129.332 57.6742 129.278 57.6658 129.218C57.6573 129.159 57.6687 129.099 57.6983 129.046L58.9143 127.303L59.2263 126.852L59.5617 126.371C59.4057 126.352 59.2497 126.335 59.0937 126.321C58.9884 126.312 58.8831 126.302 58.7817 126.294C58.7091 126.288 58.6358 126.289 58.5633 126.284C55.8175 126.104 53.0673 126.564 50.5293 127.627C49.3746 128.066 48.3557 128.8 47.5746 129.757C47.5396 129.799 47.5221 129.853 47.5259 129.907C47.5297 129.961 47.5544 130.012 47.5949 130.049C47.6167 130.084 47.6477 130.113 47.6845 130.132C47.7214 130.15 47.7626 130.159 47.804 130.156L53.5908 130.01L58.869 129.876L59.3987 129.862L62.7761 129.777L64.8821 129.723C64.9173 129.722 64.952 129.715 64.9843 129.701C65.0166 129.686 65.0457 129.666 65.0702 129.641C65.0946 129.615 65.1138 129.586 65.1266 129.553C65.1394 129.52 65.1456 129.485 65.1449 129.45C65.1458 129.406 65.1359 129.363 65.1161 129.324ZM125.341 48.5614C125.228 49.0672 125.312 49.597 125.575 50.0434C125.613 50.1007 125.671 50.1414 125.737 50.1572C125.804 50.1729 125.874 50.1625 125.933 50.1279C125.992 50.0934 126.035 50.0375 126.054 49.9718C126.073 49.9061 126.066 49.8356 126.034 49.7751C125.839 49.4549 125.774 49.0722 125.853 48.7057C125.923 48.3687 125.41 48.2268 125.341 48.5614Z" fill="black"/>
<path d="M106.886 134.172C106.956 134.172 107.024 134.144 107.074 134.094C107.123 134.045 107.151 133.977 107.151 133.907C107.151 133.836 107.123 133.769 107.074 133.719C107.024 133.67 106.956 133.642 106.886 133.642C102.953 133.683 99.0209 133.725 95.0886 133.77C91.3009 133.81 87.5135 133.845 83.7264 133.874C79.9631 133.901 76.1999 133.915 72.4366 133.917C68.508 133.917 64.5792 133.899 60.6501 133.863C56.4349 133.824 52.2203 133.761 48.0063 133.677C47.4452 133.666 46.8844 133.654 46.3238 133.642C46.2535 133.642 46.186 133.67 46.1363 133.719C46.0865 133.769 46.0586 133.836 46.0586 133.907C46.0586 133.977 46.0865 134.045 46.1363 134.094C46.186 134.144 46.2535 134.172 46.3238 134.172C50.5878 134.264 54.8518 134.332 59.1158 134.379C63.074 134.421 67.0328 134.443 70.9921 134.447C74.7647 134.451 78.5378 134.44 82.3114 134.414C86.0851 134.388 89.8629 134.355 93.6448 134.316C97.5485 134.275 101.452 134.233 105.356 134.188L106.886 134.172Z" fill="#FF9F48"/>
<path d="M58.4062 128.955C59.6546 128.885 60.8583 128.466 61.8804 127.746C63.9706 126.413 65.7194 124.609 66.9862 122.479C67.7152 121.371 68.1845 120.114 68.3591 118.799C68.4954 117.674 68.2936 116.534 67.7795 115.523L66.8139 116.906C65.0459 119.443 63.2758 121.979 61.5036 124.515L58.4062 128.955ZM124.114 50.0565C124.079 50.0502 124.042 50.0518 124.007 50.0612C122.2 50.3994 120.365 50.5754 118.526 50.5869C118.48 50.5878 118.435 50.6006 118.395 50.6242C118.355 50.6478 118.322 50.6812 118.299 50.7213C118.276 50.7615 118.264 50.8069 118.263 50.8531C118.263 50.8994 118.275 50.945 118.297 50.9855C118.938 52.2842 119.766 53.9495 121.476 53.7771C123.187 53.6047 124.141 51.941 124.362 50.3817C124.373 50.3071 124.354 50.2311 124.309 50.1705C124.264 50.1098 124.197 50.0694 124.123 50.058L124.114 50.0565ZM121.389 53.2545C120.118 53.3496 119.449 52.1305 118.944 51.1048C120.566 51.0731 122.183 50.9166 123.78 50.6368C123.506 51.8622 122.756 53.1515 121.389 53.2545Z" fill="black"/>
<path d="M57.6354 136.988C57.587 136.749 57.4616 136.533 57.2785 136.372C57.0954 136.211 56.8646 136.114 56.6214 136.097C56.3297 136.094 56.0406 136.152 55.7728 136.268C55.5051 136.384 55.2646 136.554 55.0669 136.769C54.6073 137.201 54.2228 137.707 53.9289 138.265C52.7994 140.362 51.7121 142.483 50.7855 144.678C50.3115 145.796 49.8845 146.932 49.5055 148.085C49.2715 148.805 48.7754 149.841 49.6771 150.313C50.631 150.812 51.2082 149.701 51.6177 149.036C52.2643 147.983 52.801 146.863 53.3641 145.764L56.9467 138.768C57.1144 138.441 57.2899 138.118 57.449 137.787C57.5893 137.545 57.6542 137.267 57.6354 136.988ZM52.0569 144.888C52.4239 143.754 52.8787 142.65 53.4172 141.586C53.5732 141.281 54.0295 141.55 53.875 141.854C53.3576 142.877 52.9206 143.938 52.5678 145.029C52.4632 145.353 51.9508 145.213 52.0569 144.888ZM97.08 136.239C96.1214 135.705 95.2509 136.672 94.864 137.452C93.9335 139.39 93.1582 141.41 92.4203 143.428C91.9796 144.635 91.5623 145.851 91.1723 147.078C90.963 147.691 90.7882 148.316 90.6489 148.95C90.593 149.16 90.585 149.38 90.6255 149.593C90.666 149.807 90.754 150.009 90.8829 150.184C91.0019 150.337 91.1541 150.46 91.3279 150.545C91.5017 150.63 91.6926 150.674 91.886 150.674C92.0997 150.662 92.3071 150.597 92.4895 150.485C92.672 150.374 92.8237 150.218 92.9312 150.033C93.2994 149.466 93.6379 148.88 93.9452 148.278C94.265 147.693 94.5793 147.108 94.8812 146.51C96.172 144.13 97.108 141.573 97.6596 138.922C97.8218 138.03 98.0472 136.778 97.08 136.239ZM93.6293 145.041L94.6129 141.931C94.7158 141.606 95.2283 141.745 95.1246 142.072L94.141 145.181C94.038 145.507 93.5263 145.367 93.6293 145.041ZM58.0878 88.1399C56.026 88.1082 53.964 88.0773 51.9016 88.0471L38.2072 87.8279L36.9631 87.8092C33.8649 85.9029 30.9898 83.6323 28.0563 81.4912C27.309 80.9452 26.5594 80.3992 25.7982 79.8758C25.5174 79.6808 25.2522 80.141 25.5306 80.3337C28.5438 82.4179 31.4251 84.6877 34.4351 86.7765C35.1607 87.2834 35.8993 87.7713 36.6503 88.2398C37.5684 92.0306 38.3663 95.8495 39.1229 99.6761L39.6486 99.6215C39.4817 98.7799 39.3179 97.9375 39.1463 97.0967C38.5496 94.1701 37.9178 91.2467 37.2181 88.3451C41.4691 88.409 45.7199 88.4777 49.9704 88.551C51.132 88.5697 52.2937 88.5874 53.4554 88.604C53.4442 88.6442 53.4424 88.6863 53.4499 88.7273C54.0079 91.8046 54.5313 94.8875 55.0201 97.9757C55.1496 97.6637 55.2798 97.3517 55.4038 97.0335C54.9514 94.2219 54.4723 91.4139 53.9663 88.6095C55.2985 88.6308 56.631 88.6514 57.9638 88.6711C58.0083 88.4941 58.048 88.3178 58.0878 88.1399ZM24.5728 76.2059C24.2977 75.7989 23.9033 75.487 23.4438 75.3132C22.9843 75.1393 22.4822 75.1119 22.0066 75.2348C21.4317 75.3781 20.9233 75.7144 20.5665 76.1874C20.2098 76.6605 20.0262 77.2416 20.0464 77.8338C20.0437 78.3561 20.2101 78.8653 20.5208 79.2851C20.8316 79.705 21.2699 80.0129 21.7702 80.1629C22.2369 80.3255 22.7416 80.3447 23.2193 80.2179C23.697 80.0911 24.1257 79.8242 24.4503 79.4515C24.7989 78.9874 24.9974 78.4279 25.0193 77.8479C25.0411 77.2679 24.8854 76.695 24.5728 76.2059Z" fill="#FF9F48"/>
<path d="M110.668 50.6176C110.133 50.6628 109.595 50.6495 109.063 50.5778C108.73 50.531 108.585 51.0419 108.922 51.0887C109.5 51.1727 110.086 51.1926 110.668 51.148C111.006 51.1207 111.008 50.5903 110.668 50.6176ZM114.864 48.2916C115.01 47.9605 115.225 47.6641 115.494 47.4221C115.763 47.1801 116.08 46.9979 116.424 46.8876C116.749 46.7846 116.61 46.273 116.283 46.3759C115.872 46.5032 115.492 46.7155 115.168 46.9991C114.845 47.2826 114.584 47.631 114.403 48.0217C114.265 48.3322 114.724 48.602 114.864 48.2916ZM125.635 45.7496C125.113 45.8847 124.618 46.1098 124.173 46.4149C123.893 46.6068 124.158 47.0662 124.44 46.8728C124.846 46.5923 125.298 46.3853 125.776 46.2613C125.844 46.2426 125.901 46.1978 125.936 46.1367C125.971 46.0756 125.98 46.0031 125.961 45.9352C125.943 45.8674 125.898 45.8097 125.837 45.7749C125.776 45.7401 125.703 45.731 125.635 45.7496ZM130.003 25.6092C129.216 24.4328 128.845 23.0265 128.95 21.6148C128.975 21.2747 128.445 21.2763 128.42 21.6148C128.312 23.1212 128.708 24.6207 129.545 25.8775C129.734 26.1599 130.194 25.8962 130.003 25.6092ZM91.2803 25.7285L89.9722 24.7223C89.7023 24.5141 89.4379 24.9743 89.7047 25.1802L91.0127 26.1864C91.2834 26.3947 91.5478 25.9337 91.2803 25.7285ZM95.5063 25.7761C95.7478 25.5391 96.0534 25.3781 96.3854 25.3129C96.7174 25.2478 97.0613 25.2814 97.3744 25.4095C97.6919 25.5351 97.8299 25.0195 97.5156 24.8978C97.1118 24.7439 96.6722 24.7095 96.2493 24.7987C95.8265 24.8879 95.4383 25.097 95.1311 25.4009C94.8878 25.6412 95.2629 26.0164 95.5063 25.7761ZM104.373 27.1598C104.45 27.081 104.546 27.0228 104.652 26.9903C104.757 26.9579 104.869 26.9523 104.978 26.9741C105.086 26.9958 105.187 27.0442 105.272 27.1149C105.357 27.1856 105.423 27.2764 105.465 27.379C105.59 27.691 106.104 27.5553 105.976 27.2378C105.908 27.0476 105.793 26.8777 105.642 26.7435C105.491 26.6094 105.308 26.5155 105.111 26.4703C104.914 26.4252 104.709 26.4303 104.514 26.4853C104.32 26.5402 104.142 26.6432 103.998 26.7847C103.749 27.0202 104.125 27.3946 104.373 27.1598ZM104.38 64.0094C104.146 63.7575 103.774 64.1334 104.004 64.3846L104.52 64.9477C104.754 65.1997 105.125 64.8237 104.895 64.5726L104.38 64.0094ZM107.636 63.7021C107.837 63.9727 108.298 63.7083 108.094 63.4345L107.402 62.504C107.201 62.2326 106.74 62.497 106.944 62.7715L107.636 63.7021ZM148.275 47.4383C148.818 47.2617 149.376 47.1313 149.941 47.0483C150.277 46.9984 150.134 46.4875 149.8 46.5366C149.234 46.6196 148.677 46.7501 148.134 46.9266C147.811 47.0342 147.952 47.5444 148.275 47.4383ZM96.741 93.5519C96.3855 93.6229 96.0164 93.5621 95.7024 93.3808C95.3885 93.1995 95.1513 92.9102 95.0352 92.5667C94.9322 92.243 94.4198 92.3811 94.5235 92.7079C94.6801 93.1851 95.0076 93.5876 95.443 93.8378C95.8785 94.0881 96.3911 94.1685 96.8822 94.0636C97.2153 93.9902 97.0741 93.4778 96.741 93.5519ZM120.747 81.1928C121.096 81.3503 121.432 81.5368 121.749 81.7505C122.033 81.9416 122.299 81.4822 122.017 81.2926C121.699 81.079 121.364 80.8924 121.015 80.7349C120.707 80.5953 120.437 81.0524 120.747 81.1928Z" fill="black"/>
<path d="M111.488 23.4142C111.344 22.7965 111.109 22.2035 110.791 21.6545C110.445 21.009 110.028 20.4041 109.547 19.8512C107.896 18.0742 105.763 16.8162 103.409 16.2304C103.83 15.6022 104.36 15.0542 104.973 14.6119C105.249 14.4146 104.983 13.9544 104.706 14.1541C104.048 14.6227 103.476 15.2008 103.015 15.863C103.068 15.0102 102.92 14.1568 102.58 13.3725C102.445 13.0605 101.988 13.3296 102.122 13.64C102.437 14.3818 102.557 15.1913 102.473 15.9925C100.967 15.6384 99.4316 15.4248 97.8861 15.3545C95.675 15.2766 93.4612 15.3287 91.2561 15.5105C88.4481 15.7148 85.6518 16.0487 82.8703 16.4761C79.7831 16.9514 76.7185 17.5515 73.6765 18.2764C70.6016 19.0025 67.5688 19.8966 64.5918 20.9549C63.1926 21.4559 61.8122 22.0078 60.4531 22.6093C59.8011 22.8984 59.1557 23.2021 58.5172 23.5203C57.8604 23.8118 57.2277 24.1548 56.6249 24.546C56.2946 24.7609 56.0248 25.0566 55.841 25.4052C55.6573 25.7537 55.5657 26.1434 55.575 26.5373C55.627 26.8614 55.7765 27.162 56.0036 27.3989C56.2308 27.6358 56.5248 27.7978 56.8464 27.8633C57.705 28.0179 58.5854 28.0052 59.4391 27.8259C60.2519 27.7424 61.3548 27.7362 61.8572 28.5154C61.9705 28.679 62.0328 28.8725 62.0362 29.0715C62.0395 29.2704 61.9837 29.4659 61.8759 29.6332C61.647 29.898 61.3475 30.0923 61.0124 30.1932C60.0335 30.5785 59.0437 30.9373 58.0601 31.3086C56.7653 31.7977 54.5376 32.3226 54.7841 34.1579C54.8558 34.5495 55.0283 34.9156 55.2844 35.2203C55.5406 35.5251 55.8716 35.7578 56.2451 35.8958C57.1499 36.2056 58.1179 36.2841 59.0608 36.1243C59.5379 36.0683 60.018 36.0423 60.4984 36.0463C60.6568 36.0249 60.818 36.0461 60.9655 36.1076C61.113 36.1692 61.2415 36.2689 61.3377 36.3965C61.3905 36.4873 61.4248 36.5875 61.4388 36.6915C61.4528 36.7956 61.4461 36.9013 61.4192 37.0027C61.3922 37.1042 61.3455 37.1993 61.2817 37.2827C61.218 37.366 61.1384 37.436 61.0475 37.4885C61.018 37.5055 60.9876 37.5206 60.9562 37.5338C60.1645 38.0057 58.2169 38.9378 59.0843 40.1078C59.4906 40.5006 60.0246 40.7343 60.5889 40.7661C61.3806 40.9322 62.1801 41.0641 62.9803 41.1779C64.3648 41.3745 65.7556 41.5188 67.1487 41.6311C68.0113 41.6998 68.8756 41.7512 69.7398 41.7973C69.9489 41.6327 70.154 41.4626 70.3638 41.3004C73.8554 38.6286 77.5453 36.2266 81.4016 34.115C83.1718 33.0534 85.0323 32.1503 86.9614 31.4162C87.1494 31.0262 87.3577 30.6417 87.5784 30.2743C88.1478 29.3251 88.7843 28.4156 89.4114 27.503C89.0223 27.2189 88.7161 26.836 88.5246 26.3938C88.3762 26.0287 88.3083 25.6359 88.3256 25.2422C88.3428 24.8485 88.4447 24.4631 88.6244 24.1123C88.7976 23.7644 89.0602 23.4689 89.3854 23.256C89.7105 23.0431 90.0864 22.9206 90.4746 22.901C91.0912 22.8738 91.6935 23.0923 92.1492 23.5086C92.1848 23.4754 92.2292 23.4532 92.2772 23.4446C92.3231 23.4361 92.3704 23.4399 92.4144 23.4556C93.1916 22.4545 94.2233 21.6803 95.4016 21.2138C96.58 20.7474 97.862 20.6057 99.1139 20.8036C100.363 20.9045 101.582 21.2353 102.71 21.7793C103.798 22.3316 104.748 23.119 105.494 24.0842C106.239 25.0495 106.76 26.1686 107.019 27.3602C107.08 27.701 107.117 28.0455 107.131 28.3914C108.48 27.9754 109.812 27.5074 111.127 26.9874C111.309 26.9164 111.489 26.8408 111.67 26.7674C111.743 25.6465 111.682 24.5207 111.488 23.4142ZM141.137 42.0554C140.825 42.1834 140.962 42.6974 141.278 42.5671C143.267 41.7485 145.368 41.2375 147.51 41.0516C147.847 41.0227 147.851 40.4915 147.51 40.5212C145.32 40.7059 143.171 41.2233 141.137 42.0554ZM148.03 37.5868C145.087 38.1396 142.232 39.084 139.54 40.3948C139.233 40.5438 139.501 41.0017 139.808 40.8527C142.46 39.5644 145.273 38.6371 148.171 38.0954C148.507 38.0353 148.365 37.5236 148.03 37.5868ZM135.791 5.50855L133.893 11.0333C133.782 11.3562 134.294 11.4958 134.404 11.1737L136.303 5.64973C136.413 5.32603 135.902 5.18719 135.791 5.50855ZM141.04 7.07557C139.111 8.49576 137.356 10.1392 135.814 11.9716C135.596 12.2314 135.97 12.6089 136.189 12.3468C137.699 10.5466 139.415 8.93097 141.304 7.53343C141.579 7.33141 141.315 6.87199 141.04 7.07557ZM143.651 10.4959C141.879 11.5626 139.992 12.426 138.026 13.0699C137.704 13.1759 137.842 13.6884 138.168 13.5815C140.177 12.9248 142.106 12.0438 143.919 10.9553C143.978 10.9191 144.021 10.8611 144.037 10.7938C144.054 10.7264 144.044 10.6552 144.009 10.5952C143.974 10.5353 143.917 10.4915 143.85 10.4732C143.783 10.4549 143.712 10.4636 143.651 10.4974V10.4959ZM77.6209 13.5418C72.278 14.7891 67.0137 16.3519 61.8556 18.2218C60.4079 18.7464 58.9691 19.2956 57.5391 19.8691C57.2271 19.9947 57.3628 20.5079 57.6802 20.3808C62.773 18.3407 67.9821 16.6043 73.2803 15.1805C74.768 14.7807 76.2619 14.406 77.7621 14.0566C78.0944 13.9754 77.9532 13.4638 77.6209 13.5418ZM56.302 17.8505C55.9954 18.0002 56.2638 18.4573 56.5695 18.3083C61.4804 15.9133 66.6674 14.1319 72.0135 13.0043C73.5174 12.6871 75.0313 12.4222 76.5555 12.2095C76.8916 12.1627 76.7489 11.651 76.4143 11.6978C70.9624 12.4608 65.6255 13.8941 60.5249 15.9652C59.0985 16.545 57.6909 17.1734 56.302 17.8505ZM58.149 75.388C58.8081 75.356 59.468 75.3209 60.1271 75.2928C61.451 75.2366 62.775 75.1891 64.0989 75.1501C64.4397 75.1399 64.4413 74.6095 64.0989 74.6197C62.1104 74.6784 60.1227 74.7564 58.1358 74.8537C57.9587 74.863 57.7816 74.87 57.6046 74.8786C55.0992 75.006 52.5954 75.1636 50.0932 75.3513C48.7719 75.4522 47.4516 75.5611 46.1323 75.6781C45.7946 75.7085 45.7915 76.239 46.1323 76.2085C49.9549 75.869 53.7834 75.6027 57.6178 75.4098C57.7949 75.4051 57.972 75.3973 58.149 75.388ZM41.9094 99.9088C43.1101 99.7762 44.31 99.6358 45.5091 99.4876C45.843 99.4463 45.8476 98.9159 45.5091 98.9572C43.5581 99.1975 41.6052 99.4177 39.6505 99.6179L39.1248 99.6725C37.0677 99.8805 35.009 100.066 32.9488 100.23C31.7445 100.326 30.5396 100.414 29.3343 100.495C28.995 100.518 28.9926 101.048 29.3343 101.026C32.6368 100.804 35.9351 100.526 39.2293 100.191L39.7535 100.136C40.4727 100.062 41.191 99.9884 41.9094 99.9088ZM19.2161 94.6688C14.5915 95.6143 9.87467 96.0329 5.15583 95.9168C5.08549 95.9168 5.01803 95.9447 4.9683 95.9945C4.91857 96.0442 4.89062 96.1117 4.89062 96.182C4.89062 96.2523 4.91857 96.3198 4.9683 96.3695C5.01803 96.4193 5.08549 96.4472 5.15583 96.4472C9.92234 96.5616 14.6865 96.1362 19.3573 95.1789C19.6919 95.1126 19.5499 94.6009 19.2161 94.6688ZM19.8931 109.72L30.7929 109.054C31.1322 109.032 31.1345 108.502 30.7929 108.523L19.8931 109.19C19.5538 109.21 19.5515 109.741 19.8931 109.72ZM53.416 141.586C52.8775 142.649 52.4227 143.753 52.0557 144.888C51.9496 145.214 52.462 145.356 52.5666 145.029C52.9192 143.938 53.3563 142.877 53.8738 141.854C54.0283 141.55 53.572 141.281 53.416 141.586ZM94.6117 141.931L93.6281 145.04C93.5251 145.366 94.0368 145.508 94.1398 145.181L95.1234 142.072C95.224 141.745 94.7146 141.605 94.6117 141.931Z" fill="black"/>
</g>
<defs>
<filter id="filter0_d_665_13787" x="-3" y="0" width="164" height="164" filterUnits="userSpaceOnUse" color-interpolation-filters="sRGB">
<feFlood flood-opacity="0" result="BackgroundImageFix"/>
<feColorMatrix in="SourceAlpha" type="matrix" values="0 0 0 0 0 0 0 0 0 0 0 0 0 0 0 0 0 0 127 0" result="hardAlpha"/>
<feOffset dy="4"/>
<feGaussianBlur stdDeviation="2"/>
<feComposite in2="hardAlpha" operator="out"/>
<feColorMatrix type="matrix" values="0 0 0 0 0 0 0 0 0 0 0 0 0 0 0 0 0 0 0.25 0"/>
<feBlend mode="normal" in2="BackgroundImageFix" result="effect1_dropShadow_665_13787"/>
<feBlend mode="normal" in="SourceGraphic" in2="effect1_dropShadow_665_13787" result="shape"/>
</filter>
</defs>
</svg>
