<svg width="85" height="99" viewBox="0 0 85 99" fill="none" xmlns="http://www.w3.org/2000/svg">
<path d="M72.8904 61.4077C70.502 61.8864 67.9126 62.1007 65.4891 62.3606L65.8054 62.5234C69.1714 63.9183 74.7253 66.4087 75.6208 65.9231C76.3766 65.3068 76.7771 61.4592 76.832 60.9691C77.0929 58.6243 77.7146 60.4395 72.8904 61.4077ZM75.2104 61.4003C74.887 62.6685 74.4017 63.8898 73.7665 65.0341C73.6413 65.2633 73.2903 65.0578 73.416 64.8291C74.028 63.7127 74.4992 62.5247 74.8189 61.2924C74.8356 61.2433 74.8705 61.2025 74.9163 61.1783C74.9621 61.1541 75.0155 61.1483 75.0654 61.1621C75.1154 61.1758 75.1582 61.2082 75.1852 61.2524C75.2121 61.2967 75.2211 61.3496 75.2104 61.4003ZM19.5165 52.3992C17.8544 47.7952 16.4863 43.0903 15.4204 38.313C14.0373 41.9032 10.2318 44.8806 6.89844 46.8022C7.42462 47.6254 12.0385 51.3315 15.0788 52.7853C16.1514 53.2258 17.251 53.5972 18.3711 53.8971C18.684 53.3487 19.0692 52.8449 19.5165 52.3992ZM18.1785 24.3787L18.1107 27.2745C18.0978 27.4928 17.9939 28.0299 18.228 28.1808C18.7329 28.5075 19.7293 26.727 20.9505 27.1789C21.0867 27.2156 21.2109 27.2876 21.3102 27.3878C21.4096 27.4879 21.4807 27.6126 21.5162 27.7492C21.5518 27.8857 21.5506 28.0292 21.5127 28.1651C21.4748 28.301 21.4015 28.4244 21.3005 28.5229C20.9277 29.0238 20.2283 29.2159 19.9145 29.7569C22.0464 33.9015 24.7773 39.6406 26.4668 43.8283C28.7591 37.5145 37.8082 33.4001 41.9444 33.9332C43.4247 34.1609 44.8328 34.7257 46.0601 35.584C47.2874 36.4422 48.3011 37.571 49.0229 38.8832C49.1145 38.9669 49.0675 39.1104 48.9061 39.1599C49.3092 40.048 49.5282 41.0086 49.5499 41.9836C49.5716 42.9586 49.3955 43.928 49.0323 44.8331C49.0559 44.8399 49.0779 44.8514 49.097 44.8667C49.1161 44.8821 49.132 44.9011 49.1438 44.9226C49.1555 44.9442 49.1629 44.9678 49.1654 44.9922C49.1679 45.0166 49.1656 45.0413 49.1586 45.0648C49.0353 45.4915 47.4013 47.5398 46.9924 47.614C46.882 47.6192 46.7714 47.607 46.6648 47.5779C45.9515 48.0204 45.1416 48.2837 44.3045 48.3453C43.4673 48.4068 42.6277 48.2648 41.8573 47.9313C41.0312 48.9387 40.202 49.9163 39.3987 50.9182C40.061 51.1181 40.7229 51.3186 41.3846 51.5196C45.3758 50.7919 47.1172 52.8066 46.295 52.8298C45.6955 52.812 45.6451 52.8581 47.0657 53.214C53.8749 54.9049 60.4842 54.1748 60.8678 54.2465C60.9871 54.2094 70.0788 53.8297 74.0194 53.0199C76.887 52.4259 77.9978 51.1449 79.0536 50.9835L79.065 50.9414C83.7586 41.7394 92.727 33.5669 96.0682 27.7452C95.2678 28.2566 94.4248 27.6165 94.0635 26.7334C90.8915 35.7637 81.6509 37.4254 77.5112 51.4339C77.4944 51.483 77.4596 51.5238 77.4137 51.548C77.3679 51.5722 77.3146 51.578 77.2646 51.5642C77.2147 51.5505 77.1718 51.5182 77.1449 51.4739C77.1179 51.4296 77.1089 51.3767 77.1196 51.326C81.2989 37.169 91.3613 34.8173 93.8383 26.1048C93.8515 26.0632 93.8776 26.027 93.9128 26.0012C93.9479 25.9755 93.9904 25.9616 94.034 25.9616C94.0776 25.9616 94.1201 25.9755 94.1553 26.0012C94.1905 26.027 94.2166 26.0632 94.2298 26.1048C94.4644 26.6938 95.1208 28.0571 95.9351 27.3453C95.9585 27.3253 95.986 27.3106 96.0157 27.3024C96.0454 27.2941 96.0766 27.2925 96.1069 27.2976C96.1373 27.3027 96.1662 27.3144 96.1916 27.3319C96.217 27.3493 96.2382 27.3722 96.2539 27.3987C96.3958 27.1511 96.4901 26.8791 96.532 26.5968C96.2692 23.264 92.0899 20.0005 89.4412 17.9987C88.0675 17.0518 86.55 16.333 84.9471 15.8702C62.9443 8.47785 38.2631 4.51092 16.5128 12.3888C16.7494 14.6797 18.5641 17.6423 17.7008 24.1075C18.1963 24.0486 18.177 24.0006 18.1785 24.3787ZM45.5367 20.7281C49.0111 17.4576 50.9559 18.1353 51.9514 16.0182C53.2171 12.3586 55.7579 13.9154 57.1162 12.1369C57.1392 12.1066 57.17 12.083 57.2053 12.0688C57.2406 12.0546 57.2791 12.0503 57.3167 12.0562C57.3323 12.0257 57.3562 12.0002 57.3855 11.9825C57.4149 11.9648 57.4485 11.9556 57.4828 11.956C57.5171 11.9563 57.5506 11.9662 57.5795 11.9845C57.6085 12.0029 57.6318 12.0289 57.6468 12.0597C58.177 13.2026 57.6666 14.3931 57.5869 15.5702C57.4513 17.5779 59.2496 18.5234 59.2798 21.9493C59.3031 22.4329 59.3194 22.918 59.3566 23.4006C63.9645 21.9384 62.7998 22.0146 63.1334 21.9295C63.9937 21.2795 64.3897 19.9861 65.5267 19.7302C65.5313 19.679 65.5552 19.6315 65.5935 19.5972C65.6318 19.563 65.6817 19.5446 65.7331 19.5458C65.7845 19.547 65.8335 19.5677 65.8701 19.6037C65.9068 19.6397 65.9285 19.6883 65.9307 19.7396C65.9307 20.9593 65.9742 22.1547 66.5811 23.2442C67.0637 24.1114 67.7557 24.9866 67.6389 26.0385C67.6107 26.2964 67.2048 26.2978 67.233 26.0385C67.3627 24.8747 66.4261 24.001 65.9767 22.9249C65.0268 23.314 64.1793 22.4745 63.2542 22.3378C62.3662 22.9541 61.2341 23.2288 59.3932 23.8139C59.5942 25.9454 60.6896 26.9973 60.648 28.6219C60.6454 28.6739 60.623 28.7229 60.5852 28.7589C60.5475 28.7948 60.4974 28.8148 60.4453 28.8148C60.3932 28.8148 60.3431 28.7948 60.3054 28.7589C60.2677 28.7229 60.2452 28.6739 60.2426 28.6219C60.2921 26.6755 58.8566 26.2756 58.8566 21.626C58.7254 18.6065 57.3909 18.0551 57.1969 16.2231C54.8139 16.4503 54.762 15.397 54.3754 14.7322C54.2625 14.586 54.1068 14.4788 53.93 14.4255C53.7532 14.3722 53.5641 14.3756 53.3893 14.4352C52.8354 14.5837 52.484 16.0484 52.0296 16.7122C51.2791 17.8131 49.9065 18.1477 48.7848 18.7323C46.2356 20.0584 44.3071 22.2676 42.4488 24.401C42.2771 24.599 41.9905 24.3104 42.1617 24.1144C43.2194 22.9205 44.3464 21.7898 45.5367 20.7281Z" fill="#1E804C" fill-opacity="0.66"/>
<path d="M64.4091 21.1147C63.4918 22.3799 63.3121 21.8003 64.5605 22.3943C64.7525 22.5022 64.9639 22.571 65.1827 22.5965C65.4014 22.622 65.623 22.6037 65.8347 22.5428C65.6148 21.7664 65.511 20.9617 65.5268 20.1549C65.0641 20.3518 64.6736 20.6871 64.4091 21.1147ZM54.9437 15.246C55.3149 16.1251 56.3559 15.8964 57.1746 15.8192C57.1746 14.6975 57.7305 13.5209 57.3627 12.4532C56.5742 13.36 55.3149 13.4927 54.2408 13.905C53.7987 14.0753 53.8349 14.0446 54.172 14.2367C54.4744 14.448 54.8556 14.6792 54.959 15.0326L54.9437 15.246Z" fill="#1E804C" fill-opacity="0.66"/>
<path d="M48.5853 39.163C46.9023 39.0689 46.7013 40.5876 44.8322 42.0166C45.7524 41.9696 45.7346 42.4225 45.4955 42.3993C44.1526 42.2508 43.8387 43.1992 43.5487 42.825C43.51 42.7755 43.3353 42.9868 42.471 43.1957C42.0493 43.3036 42.2552 42.2057 41.0073 41.9909C39.7664 41.7885 38.9417 43.3274 39.8545 44.1649C41.2162 45.4099 42.1453 44.5728 40.3094 46.2152C38.8434 47.6167 37.1747 48.7893 35.3594 49.6936C36.4434 50.0218 38.6264 50.6836 39.4011 50.9172C40.2049 49.9159 41.0346 48.9372 41.8597 47.9304C42.63 48.2641 43.4697 48.4063 44.3069 48.3447C45.1441 48.2832 45.9539 48.0197 46.6672 47.577C45.2089 47.0592 44.9347 45.2851 45.5242 45.597C46.5875 46.1494 48.0952 45.9509 48.7882 44.9074C48.8136 44.8673 48.8526 44.8376 48.898 44.8238C48.9434 44.81 48.9923 44.813 49.0357 44.8322C49.4731 43.8022 49.6433 42.6785 49.5307 41.5652C49.3584 41.5899 49.1938 41.6529 49.0491 41.7497C48.9043 41.8466 48.7832 41.9747 48.6947 42.1246C48.5694 42.3547 48.22 42.1498 48.3437 41.9201C48.658 41.3326 49.3312 41.1247 49.4926 41.2336C49.3939 40.5182 49.1963 39.82 48.9055 39.159C48.7992 39.1717 48.6919 39.173 48.5853 39.163Z" fill="#E59E70"/>
<path d="M44.7505 44.1288C44.6733 44.3343 44.6562 44.5575 44.701 44.7723C44.747 45.0292 45.1381 44.9208 45.0926 44.6644C45.0685 44.5207 45.0856 44.3731 45.1421 44.2387C45.2361 43.9927 44.8426 43.8868 44.7505 44.1288ZM49.06 43.8675L49.159 43.2695C49.2011 43.0141 48.8095 42.9042 48.7674 43.1616L48.6684 43.76C48.6269 44.015 49.0179 44.1253 49.06 43.8675ZM39.3278 64.9738C36.3617 75.3108 36.8008 74.3609 36.2662 74.2961C35.2299 74.1153 34.2062 73.8688 33.2012 73.558C33.221 73.7066 33.2324 73.855 33.2378 74.0001C33.9254 74.1981 34.6169 74.3802 35.3168 74.5327C35.3413 74.5007 35.3743 74.4764 35.4122 74.4626C35.45 74.4488 35.491 74.4461 35.5303 74.4547C35.5696 74.4634 35.6056 74.4832 35.6341 74.5116C35.6625 74.5401 35.6823 74.5761 35.691 74.6154C35.9771 74.6901 36.9246 74.853 36.9988 74.5688C40.3089 63.0299 40.1094 64.4713 39.3278 64.9738ZM48.3442 41.9191C48.2205 42.1488 48.5704 42.3537 48.6952 42.1236C48.7834 41.9734 48.9044 41.8451 49.049 41.7482C49.1937 41.6513 49.3583 41.5882 49.5307 41.5637C49.5505 41.5436 49.566 41.5198 49.5765 41.4936C49.587 41.4674 49.5923 41.4395 49.5919 41.4113C49.5916 41.3831 49.5857 41.3553 49.5746 41.3293C49.5635 41.3034 49.5474 41.28 49.5273 41.2603C49.307 41.0464 48.609 41.4316 48.3442 41.9191Z" fill="black"/>
<path d="M8.34999 60.6295C5.97399 60.2375 3.36633 63.6852 2.71639 66.4146C2.61145 66.8601 2.22882 68.6753 2.68669 68.7411C4.29049 68.8896 5.54631 70.0821 6.96597 71.1537C6.93918 70.1557 7.17436 69.168 7.64808 68.2892C8.46195 66.8667 9.44927 65.5509 10.5874 64.3717C10.8384 63.9011 11.1369 63.4574 11.4784 63.0476C9.33504 61.2661 9.1801 60.7666 8.34999 60.6295ZM33.201 73.557C33.1621 73.1471 33.0238 72.7528 32.7982 72.4084C32.5725 72.064 32.2663 71.7798 31.906 71.5804C31.0114 72.3265 29.9533 72.8509 28.8177 73.111C28.0054 73.7777 27.157 74.4663 26.7353 75.4493C26.3234 76.4101 26.4917 77.7036 27.5496 78.1575C27.7896 78.2599 27.5827 78.6099 27.3446 78.5084C25.6933 77.7981 25.5626 75.1553 27.9495 73.3174C26.3299 73.7075 24.6815 73.9665 23.0203 74.092C22.4877 75.3835 22.1961 77.0249 21.6902 77.8847C25.0894 79.2405 25.3532 79.6568 27.014 80.2781C29.9449 81.1799 31.6531 78.9416 32.7817 76.1498C33.1666 75.3434 33.3121 74.4435 33.201 73.557ZM32.404 76.2686C32.3733 76.5106 31.9615 76.4304 32.012 76.1607C32.0899 75.8914 32.0929 75.606 32.0207 75.3351C31.9485 75.0643 31.8038 74.8183 31.6022 74.6235C31.4006 74.4288 31.1497 74.2927 30.8765 74.23C30.6033 74.1672 30.3182 74.1801 30.0518 74.2673C28.6717 74.737 28.4975 76.7561 29.332 76.819C30.3597 76.8947 30.1419 75.2815 30.6275 75.433C30.6766 75.4484 30.718 75.4818 30.7435 75.5266C30.7689 75.5713 30.7764 75.624 30.7646 75.6741C30.6022 76.5334 30.0092 77.415 29.0984 77.1823C27.9926 76.8358 28.2302 74.4158 29.9726 73.8658C30.304 73.7771 30.6524 73.7727 30.986 73.8529C31.3196 73.9331 31.6279 74.0955 31.8828 74.3252C32.1449 74.5666 32.3331 74.8776 32.4254 75.2218C32.5177 75.566 32.5103 75.9294 32.404 76.2696V76.2686ZM10.7413 69.0406C10.206 69.6782 9.76553 70.3897 9.43354 71.1532C8.94448 72.859 8.25198 72.1195 9.289 72.8328C11.1136 74.1252 13.0956 75.4102 15.1216 75.8637C15.1435 75.8242 15.1776 75.7929 15.2188 75.7746C15.2601 75.7563 15.3061 75.752 15.3501 75.7622C15.394 75.7724 15.4334 75.7967 15.4623 75.8314C15.4912 75.866 15.508 75.9092 15.5102 75.9542C21.8328 77.4051 18.4024 78.2372 20.2651 74.101C17.3887 73.9346 12.3887 71.9819 10.7413 69.0406Z" fill="#B26EE6"/>
<path d="M10.5868 64.3713C9.44871 65.5504 8.46139 66.8663 7.64752 68.2887C6.83176 69.8485 6.4313 72.4829 8.16083 72.6022C8.88947 72.6581 9.30973 71.9007 9.51218 71.1959C9.82242 70.4254 10.2354 69.7005 10.7398 69.0406C10.3264 68.337 10.0958 67.5411 10.0691 66.7254C10.0424 65.9098 10.2204 65.1005 10.5868 64.3713ZM20.2636 74.1015C19.814 74.8985 19.528 75.7771 19.4221 76.6859C19.1919 78.853 20.9105 79.3589 21.703 77.864C22.1713 77.0171 22.5589 75.2098 23.0188 74.0936C22.1017 74.1614 21.181 74.1641 20.2636 74.1015ZM41.9065 43.9466C41.4883 43.767 41.1275 43.4759 40.8635 43.1051C40.715 42.8923 40.3626 43.0952 40.513 43.3095C40.8099 43.743 41.2211 44.0857 41.701 44.2995C41.9386 44.4015 42.146 44.0501 41.9065 43.9466Z" fill="black"/>
<path d="M18.7656 65.5915C18.9227 66.0024 19.1659 66.3749 19.4789 66.6839C19.7364 66.4247 20.0453 66.2224 20.3858 66.0899C20.6693 64.7716 21.1857 63.5144 21.9109 62.3774C21.4599 62.2488 21.0211 62.0807 20.5996 61.875C19.7544 62.984 19.1316 64.246 18.7656 65.5915Z" fill="#204B38"/>
<path d="M32.4222 75.2162C32.2739 74.7139 31.9333 74.2905 31.4744 74.0381C31.0156 73.7857 30.4756 73.7247 29.9719 73.8684C28.2181 74.4233 28.0038 76.8418 29.0978 77.1849C30.0086 77.417 30.6031 76.53 30.7639 75.6766C30.7746 75.6259 30.7656 75.573 30.7387 75.5287C30.7117 75.4845 30.6689 75.4522 30.6189 75.4384C30.569 75.4246 30.5156 75.4304 30.4698 75.4546C30.424 75.4789 30.3892 75.5197 30.3724 75.5687C30.2328 76.0637 29.9977 76.8681 29.3329 76.8191C28.5275 76.7582 28.6424 74.747 30.0526 74.2673C30.319 74.18 30.6042 74.1669 30.8775 74.2296C31.1508 74.2923 31.4017 74.4284 31.6034 74.6232C31.8051 74.818 31.9498 75.0641 32.0219 75.335C32.094 75.6059 32.0909 75.8914 32.0128 76.1607C31.9633 76.4325 32.3727 76.5107 32.4049 76.2686C32.4963 75.9245 32.5023 75.5632 32.4222 75.2162Z" fill="black"/>
<path d="M26.2579 75.5696C25.9006 76.6468 26.2228 78.0268 27.3469 78.5095C27.585 78.6109 27.7924 78.262 27.5519 78.1585C26.4941 77.7041 26.3258 76.4116 26.7376 75.4504C27.2103 74.3485 28.2162 73.6189 29.1458 72.8437C29.2799 72.7447 29.1636 72.5586 29.1755 72.6081C29.0205 72.3606 28.7933 72.611 28.6033 72.7679C27.5499 73.6362 26.7792 74.2406 26.2579 75.5696Z" fill="black"/>
<path d="M14.3056 31.8231C14.7383 34.0209 15.3337 36.1157 15.8342 38.2987C17.286 36.7013 19.5625 34.9901 21.8173 34.4807C21.2645 33.3396 20.7037 32.2031 20.1347 31.0712C19.4338 29.6852 19.0502 29.6738 20.4199 28.7645C21.9093 27.7779 20.8574 26.8236 19.6932 27.7794C18.9448 28.5882 17.8444 29.0506 17.6984 27.9279C17.6687 27.5369 17.6845 27.6071 17.8721 24.4946C16.9362 24.4722 16.0117 24.7035 15.1966 25.1638C13.629 26.3617 13.9235 29.8777 14.3056 31.8231Z" fill="#E59E70"/>
<path d="M27.4515 48.6694C24.729 48.7872 20.2977 51.3583 18.69 54.107C18.2329 55.0915 18.0021 56.1659 18.0143 57.2512C17.7846 60.295 20.3566 61.7815 23.3603 62.329C28.436 63.2541 32.8895 61.5973 36.6817 57.3572C37.8059 56.2147 38.6993 54.6208 37.7707 53.2982C36.8545 51.9765 35.0893 50.9128 33.6246 50.2881C31.4021 50.8222 29.0657 50.3693 27.4515 48.6694ZM19.7334 54.7381C19.8473 54.4044 20.0396 54.1029 20.2943 53.859C20.4829 53.6783 20.7704 53.9654 20.5814 54.1461C20.375 54.339 20.2187 54.5792 20.126 54.846C20.0388 55.0935 19.6508 54.9856 19.7334 54.7381ZM21.309 59.9445C20.6655 59.6644 20.027 58.662 20.4814 58.5531C20.865 58.461 20.6195 59.2253 21.5134 59.5926C21.753 59.697 21.5461 60.0485 21.309 59.9445ZM26.6392 61.0335C26.1788 61.1261 24.8987 61.1613 25.0398 60.7153C25.1527 60.3569 25.513 60.8445 26.5313 60.642C26.7872 60.593 26.8951 60.984 26.6392 61.0335ZM32.7742 59.1941C32.1488 59.5468 31.4913 59.8392 30.8105 60.0673C30.563 60.1505 30.4566 59.7584 30.7031 59.6753C31.3502 59.458 31.9751 59.1795 32.5693 58.8437C32.6159 58.8165 32.6715 58.809 32.7237 58.8228C32.7759 58.8365 32.8205 58.8705 32.8477 58.9172C32.8749 58.9638 32.8824 59.0194 32.8686 59.0716C32.8548 59.1238 32.8209 59.1684 32.7742 59.1956V59.1941ZM34.8562 56.5251C35.2814 56.1394 35.6443 55.69 35.9318 55.193C35.959 55.1466 36.0035 55.1128 36.0556 55.0991C36.1077 55.0855 36.163 55.0931 36.2095 55.1203C36.256 55.1474 36.2897 55.192 36.3034 55.2441C36.317 55.2961 36.3094 55.3515 36.2823 55.398C35.9775 55.9251 35.5935 56.4022 35.1438 56.8127C34.9497 56.9889 34.6621 56.7028 34.8562 56.529V56.5251Z" fill="#204B38"/>
<path d="M78.4768 51.488C77.8877 51.8077 77.1561 52.2359 76.5364 52.4928C73.3031 53.7412 63.7298 54.4862 61.1137 54.6317C61.3656 57.2582 61.5424 59.9406 61.084 62.5517C72.7917 61.6805 74.8747 61.1212 78.1303 58.5115C79.3336 57.7195 78.7674 56.8043 77.5675 57.0181C77.3423 57.0181 77.2853 56.6622 77.513 56.6196C78.4248 56.4469 79.8569 56.1162 79.7861 54.9059C79.7316 53.9699 77.9407 53.6932 77.0037 53.7823C76.7755 53.8016 76.726 53.4214 76.9497 53.3863C77.7827 53.2927 78.5904 53.0423 79.3302 52.6483C80.5345 52.128 79.6034 50.7747 78.4768 51.488ZM74.9128 55.0574C75.0526 55.0293 75.1836 54.9678 75.2945 54.8782C75.4054 54.7886 75.493 54.6734 75.5499 54.5426C75.6593 54.306 76.0087 54.5119 75.9003 54.7475C75.8183 54.9248 75.6961 55.0804 75.5434 55.2022C75.3907 55.3239 75.2117 55.4084 75.0207 55.449C74.7648 55.5034 74.6564 55.1099 74.9123 55.0574H74.9128ZM76.4423 58.1517C76.1889 58.4378 75.8758 58.6649 75.5251 58.8169C75.287 58.9194 75.0796 58.5694 75.3197 58.4665C75.6397 58.3305 75.9253 58.1249 76.1557 57.8646C76.3305 57.6676 76.6151 57.9571 76.4419 58.1517H76.4423Z" fill="#E59E70"/>
<path d="M79.054 50.9851C76.8043 51.3271 78.0086 53.3363 60.8905 54.2427L60.8682 54.2481C60.8608 54.2481 60.8539 54.2456 60.8464 54.2451C51.7924 54.7129 48.0957 53.2418 46.0059 52.9289C45.6518 52.8904 45.2936 52.9241 44.953 53.0279C49.0412 54.2654 53.3398 55.0223 60.6628 54.6614C60.9143 57.2958 61.086 59.9921 60.5989 62.6087C52.7433 63.6482 48.9224 62.3612 42.8903 61.5073C42.8042 61.6325 42.7151 61.7548 42.625 61.8775C49.9535 62.9146 52.3077 64.0555 60.841 62.9888C73.018 61.6785 74.9832 61.5038 78.0937 59.0595C78.5714 58.6843 79.3075 58.2215 79.2085 57.5151C79.1791 57.3567 79.1145 57.207 79.0194 57.077C78.9243 56.947 78.8011 56.8401 78.659 56.7642C79.5738 56.4726 80.2346 55.8009 80.1861 54.854C80.1089 53.9575 79.1664 53.6254 78.2853 53.4541C78.8422 53.2561 80.0915 52.7388 80.2158 52.1597C80.3826 51.7276 79.8777 50.9232 79.054 50.9851ZM79.8247 52.0493C79.4782 52.7027 77.7774 53.2532 76.9478 53.3858C76.7241 53.4234 76.7736 53.8036 77.0018 53.7818C77.9368 53.6927 79.7297 53.9679 79.7842 54.9055C79.8549 56.1157 78.4234 56.4464 77.5111 56.6192C77.2834 56.6617 77.3403 57.0191 77.5656 57.0176C78.7659 56.8018 79.3377 57.7161 78.1284 58.511C74.7624 61.2088 72.7992 61.289 61.0821 62.5512C61.5404 59.9396 61.3637 57.2577 61.1118 54.6312C64.1783 54.4605 73.3675 53.7145 76.5345 52.4923C78.5076 51.6746 78.56 51.3182 79.3124 51.4033C79.5956 51.4716 79.902 51.7305 79.8247 52.0468V52.0493Z" fill="black"/>
<path d="M57.7203 60.984C57.9525 60.8627 57.7471 60.5113 57.5154 60.6335C57.2736 60.7531 56.9947 60.7735 56.7382 60.6902C56.4816 60.607 56.2678 60.4268 56.1423 60.188C56.0235 59.9559 55.673 60.1608 55.7918 60.393C55.9719 60.7243 56.2748 60.9719 56.6354 61.0824C56.9959 61.1929 57.3855 61.1576 57.7203 60.984Z" fill="black"/>
<path d="M35.3149 74.5326C35.2308 74.6712 36.249 84.3796 37.3994 92.6303C37.4355 92.8882 37.8266 92.7788 37.7909 92.5224C36.1475 80.7216 35.8822 75.7597 35.6891 74.6153C35.6466 74.3628 35.4268 74.3836 35.3149 74.5326ZM15.1303 75.8483C11.8471 81.1026 8.96325 86.596 6.50296 92.2823C6.40049 92.5189 6.75046 92.7278 6.85342 92.4867C12.5266 79.3267 16.3832 75.7062 15.2942 75.7557C15.2615 75.7572 15.2296 75.7663 15.2012 75.7824C15.1727 75.7985 15.1484 75.8211 15.1303 75.8483ZM26.7692 93.5921C25.4357 91.1527 25.8852 87.6798 24.8882 85.7379C24.9296 85.7212 24.9626 85.6888 24.9801 85.6478C24.9977 85.6068 24.9983 85.5606 24.9818 85.5191C24.9605 85.4696 25.0165 85.5572 22.5929 82.3135C22.438 82.1066 22.0856 82.309 22.2425 82.5184L24.2868 85.2548C24.1619 85.2444 24.0363 85.2658 23.9219 85.3171C23.8075 85.3683 23.7079 85.4477 23.6324 85.5478C22.0297 87.5418 20.7224 89.756 19.7506 92.1224C19.6516 92.3635 20.0427 92.4689 20.1422 92.2303C21.0022 90.1625 22.1179 88.2105 23.4631 86.42C23.872 85.8399 24.174 85.3345 24.5259 85.9107C25.5456 87.9491 24.9526 90.8904 26.4168 93.797C26.5445 94.0262 26.895 93.8218 26.7692 93.5921Z" fill="#DCBEFF"/>
<path d="M95.9356 27.3428C95.1169 28.0507 94.4649 26.6909 94.2303 26.1023C94.2174 26.0605 94.1914 26.0239 94.1562 25.998C94.1209 25.972 94.0783 25.958 94.0345 25.958C93.9908 25.958 93.9481 25.972 93.9129 25.998C93.8777 26.0239 93.8517 26.0605 93.8388 26.1023C91.3831 34.7396 81.2727 37.2581 77.1201 51.3236C77.1094 51.3743 77.1185 51.4272 77.1454 51.4714C77.1723 51.5157 77.2152 51.548 77.2651 51.5618C77.3151 51.5756 77.3684 51.5697 77.4142 51.5455C77.4601 51.5213 77.4949 51.4805 77.5117 51.4315C81.5979 37.6066 90.9514 35.5915 94.064 26.731C94.8411 28.6253 96.5286 27.7611 96.2544 27.3948C96.2386 27.3683 96.2173 27.3456 96.1918 27.3283C96.1664 27.311 96.1375 27.2995 96.1071 27.2945C96.0767 27.2895 96.0456 27.2913 96.016 27.2996C95.9864 27.308 95.9589 27.3227 95.9356 27.3428ZM41.9444 33.9332C37.8602 33.4066 28.7918 37.4299 26.4702 43.8278C24.7526 39.5708 21.8851 33.5907 19.9179 29.7564C20.2298 29.2174 20.9297 29.0238 21.3039 28.5224C21.3865 28.4339 21.4508 28.33 21.4932 28.2166C21.5356 28.1033 21.5552 27.9826 21.551 27.8617C21.5467 27.7407 21.5186 27.6218 21.4683 27.5117C21.418 27.4016 21.3465 27.3025 21.2579 27.22C20.1481 26.1855 18.7275 28.5026 18.2295 28.1803C17.9954 28.0318 18.0993 27.4928 18.1122 27.274C18.2943 24.2367 18.3904 24.0674 18.0899 24.0669C17.1283 24.1116 16.1874 24.3614 15.3303 24.7995C14.912 25.0605 14.5579 25.4123 14.2942 25.8288C14.0305 26.2454 13.8641 26.716 13.8072 27.2057C13.658 28.4339 13.7021 29.6779 13.9378 30.8925C15.1946 37.7388 17.1682 46.0211 19.518 52.3992C19.6224 52.2888 19.7318 52.1824 19.8407 52.0765C18.2844 47.7503 16.989 43.3348 15.9614 38.8535C17.2979 37.2458 19.6363 35.4336 22.0118 34.8752C23.4725 37.9125 25.0531 41.3632 26.2911 44.4965C26.1513 45.1313 26.1397 45.7877 26.2569 46.427C26.8588 49.2698 30.3699 51.6008 34.7684 49.9371L40.6238 51.7102C40.8757 51.6359 41.1307 51.5726 41.3866 51.5171L35.359 49.6921C37.1657 48.7735 38.8325 47.6023 40.309 46.2137C42.1127 44.5455 41.44 45.4281 39.8541 44.1634C38.9442 43.3254 39.7655 41.7874 41.0069 41.9894C42.2409 42.1992 42.0509 43.3016 42.4706 43.1942C42.8399 43.1053 43.1986 42.9774 43.5408 42.8125C43.8205 43.2229 44.1477 42.2507 45.4951 42.3977C45.755 42.4235 45.753 42.0171 45.4951 41.9918C45.2739 41.9713 45.051 41.9792 44.8318 42.0151C45.5866 41.3853 46.2999 40.7074 46.9672 39.9856C48.0037 38.8426 49.114 39.499 49.0744 39.006C49.0833 38.7729 46.8266 34.6837 41.9444 33.9332ZM15.8347 38.2986C13.9091 29.894 12.5132 24.7431 17.8691 24.4951C17.6667 27.8447 17.6711 27.5923 17.6954 27.9284C17.8439 29.0525 18.9576 28.5719 19.6902 27.7799C20.8451 26.831 21.9227 27.7675 20.4169 28.7649C19.0502 29.6728 19.4353 29.6955 20.1318 31.0716C20.704 32.2029 21.265 33.3394 21.8148 34.4812C19.5784 34.9871 17.2974 36.6889 15.8347 38.2986Z" fill="black"/>
<path d="M46.5685 52.5789C44.7197 50.3692 40.329 51.3661 37.9733 52.9175C38.9544 54.2495 38.6025 55.4642 37.6011 56.828C31.1344 65.3603 22.3892 62.3764 22.263 62.57C20.5855 65.189 20.9849 66.4092 20.5884 66.4349C19.6826 66.7601 19.6133 67.3819 19.3356 67.1121C18.8612 66.6949 18.5088 66.1569 18.3159 65.5553C18.252 65.3855 18.4748 65.2791 18.4253 65.3266C18.7943 64.0097 19.4075 62.7738 20.233 61.6834C18.3966 60.7855 17.4437 59.1332 17.656 56.7448C13.007 61.5315 10.8968 62.6784 10.2132 65.4073C8.99948 70.2058 15.0642 73.8718 20.7201 74.1228C23.1545 74.1767 25.5852 73.904 27.9471 73.312C28.8213 72.5497 28.9866 72.3715 29.1549 72.5799C29.3192 72.7694 29.0792 72.8897 28.8153 73.1056C30.9201 72.5987 32.5417 71.6998 34.4148 68.3506C34.3806 68.3483 34.3476 68.3375 34.3187 68.3191C34.2898 68.3008 34.266 68.2754 34.2495 68.2455C34.2329 68.2155 34.2242 68.1819 34.224 68.1477C34.2238 68.1135 34.2322 68.0797 34.2484 68.0496C35.2342 66.2785 36.0111 64.3989 36.5636 62.4487C36.5803 62.3997 36.6152 62.3589 36.661 62.3347C36.7068 62.3104 36.7601 62.3046 36.8101 62.3184C36.8601 62.3322 36.9029 62.3645 36.9298 62.4088C36.9568 62.453 36.9658 62.5059 36.9551 62.5566C36.5595 63.9503 36.0509 65.3095 35.4345 66.6206C38.5175 65.8918 41.2094 64.0207 42.9669 61.3849C43.1609 61.0493 42.9441 61.1206 37.7129 60.1474C38.0559 58.9684 38.2127 57.743 38.1777 56.5156C39.3484 55.8593 40.431 55.0524 41.5725 54.3441C44.7934 52.3017 46.6363 53.2511 46.6215 52.6987C46.6183 52.6538 46.5996 52.6114 46.5685 52.5789ZM12.6486 65.1519C11.72 66.9705 11.6651 67.0651 11.4497 66.9289C11.2082 66.7765 11.3973 66.7116 12.2982 64.9489C12.4175 64.7133 12.7694 64.9187 12.6486 65.1509V65.1519ZM15.5736 61.4498C14.9106 61.9166 14.3406 62.5032 13.893 63.1793C13.7495 63.3961 13.398 63.1927 13.5426 62.9739C14.029 62.2406 14.6483 61.6048 15.3686 61.0993C15.583 60.9479 15.7859 61.2993 15.5736 61.4488V61.4498ZM27.4749 72.3294C27.4348 72.5868 27.0437 72.4779 27.0833 72.221L27.2076 71.425C27.2472 71.1666 27.6382 71.2765 27.5986 71.5324C27.5577 71.7984 27.5164 72.0641 27.4749 72.3294ZM28.6629 69.0975L28.1144 70.29C28.006 70.5271 27.6555 70.3207 27.7634 70.0851C27.9459 69.6891 28.1274 69.2916 28.3079 68.8926C28.4193 68.6565 28.7693 68.8624 28.6614 69.0975H28.6629ZM31.0389 63.999C31.4793 63.2384 32.0184 62.5393 32.6422 61.92C32.8258 61.7339 33.1129 62.019 32.9293 62.2076C31.4235 63.7293 31.468 64.4901 31.1096 64.2649C31.0653 64.2383 31.0328 64.1957 31.0189 64.1459C31.0049 64.096 31.0107 64.0428 31.0349 63.9971L31.0389 63.999ZM29.0623 67.2106C29.3211 66.6796 29.6224 66.1704 29.9632 65.688C30.1117 65.4761 30.4647 65.6791 30.3132 65.8929C29.9731 66.3757 29.672 66.8849 29.4128 67.4155C29.295 67.6487 28.945 67.4427 29.0594 67.2086L29.0623 67.2106Z" fill="#204B38"/>
<path d="M66.8614 34.4218L65.9209 31.7726C65.9422 31.7152 65.9615 31.6567 65.9828 31.5993C66.0566 31.3959 65.8031 31.2914 65.663 31.3974C65.6347 31.3919 65.6054 31.3931 65.5776 31.4007C65.5497 31.4083 65.524 31.4222 65.5023 31.4413C65.4807 31.4605 65.4637 31.4843 65.4527 31.511C65.4417 31.5377 65.4369 31.5665 65.4388 31.5954C64.6812 32.2545 63.8059 32.7646 62.8589 33.0987C62.6114 33.1843 62.7188 33.5768 62.9663 33.4897C63.8226 33.1883 64.6248 32.7511 65.3423 32.1948C63.9142 36.2018 64.6121 34.6238 64.1459 34.9866C63.4381 35.4757 62.6869 35.8986 61.9015 36.2498C61.6634 36.3563 61.8694 36.7062 62.1065 36.6003C62.8519 36.2662 63.5666 35.8673 64.2424 35.4083C62.9554 39.35 62.9663 39.3683 63.2242 39.4277C63.5172 39.4966 63.3801 39.3827 64.526 35.8543C65.0007 36.5834 65.5523 37.2593 66.1714 37.8705C66.358 38.0541 66.6451 37.767 66.459 37.5839C65.7801 36.9134 65.1858 36.1623 64.6894 35.3475C65.0154 34.3528 65.3548 33.3628 65.7076 32.3775L66.4719 34.5282C66.557 34.7743 66.9495 34.6688 66.8614 34.4218ZM76.8857 22.968C77.4658 22.671 76.3748 22.1448 76.4511 22.7443C75.4922 23.2641 74.6059 23.9077 73.8147 24.6584C73.6256 24.8396 73.9137 25.1262 74.1018 24.9455C74.7493 24.327 75.4649 23.7838 76.2347 23.3264C74.8591 27.1458 75.3551 25.9994 74.976 26.1974L72.7163 27.324C72.4821 27.4408 72.6876 27.7908 72.9212 27.675C73.6304 27.3209 74.3399 26.9674 75.0497 26.6147L74.9933 26.7701C74.8369 26.7256 74.6438 26.8849 74.7552 27.0587C74.8666 27.2324 74.9705 26.834 73.7726 30.1599C73.6835 30.4074 74.0756 30.5123 74.1642 30.2678L75.1165 27.622L76.3432 29.5337C76.4837 29.753 76.8381 29.5495 76.6936 29.3288L75.2898 27.1409L76.5595 23.6165C76.6609 24.405 76.7783 25.1906 76.9292 25.9712C76.9787 26.2271 77.3698 26.1197 77.3203 25.8633C77.1381 24.9041 76.9932 23.9383 76.8857 22.968ZM76.4065 41.4315C76.3916 41.3829 76.3589 41.3417 76.315 41.3162C76.2711 41.2906 76.2191 41.2826 76.1695 41.2936C76.1199 41.3047 76.0763 41.3341 76.0474 41.3759C76.0184 41.4176 76.0063 41.4688 76.0135 41.5191C76.0065 41.531 76.0011 41.5434 75.9947 41.5558C75.9832 41.5332 75.9669 41.5134 75.947 41.4977C75.927 41.4821 75.9039 41.4711 75.8792 41.4653C75.8545 41.4596 75.8289 41.4594 75.8041 41.4647C75.7793 41.4699 75.756 41.4806 75.7358 41.4959C74.9713 42.0256 74.2512 42.6166 73.5825 43.263C73.3944 43.4452 73.6815 43.7318 73.8696 43.5501C74.4681 42.975 75.1088 42.4455 75.7863 41.9661C75.3807 42.7545 74.9966 43.5531 74.6339 44.3619C74.3661 44.3411 72.9509 45.2311 72.6044 45.4801C72.393 45.6311 72.596 45.9825 72.8093 45.8306C73.3127 45.476 73.8445 45.1635 74.3993 44.8965C73.9817 45.8636 73.5971 46.8446 73.2459 47.8378C73.1593 48.0853 73.5513 48.1907 73.6375 47.9457C74.0206 46.8567 74.4452 45.7831 74.9111 44.7247C75.1508 45.4253 75.5342 46.068 76.0367 46.6117C76.2154 46.8032 76.5015 46.5161 76.3243 46.3246C75.3497 45.2762 75.2759 44.3446 75.1324 44.2456C75.4624 43.5196 75.8089 42.8041 76.1719 42.0993C76.8094 44.3624 76.7634 44.4673 77.0312 44.3837C77.2861 44.3025 77.2247 44.3421 76.4065 41.4315ZM43.7954 30.3886C42.5193 30.1114 41.2376 29.8639 39.9503 29.6461C39.6943 29.6025 39.5849 29.9926 39.8418 30.0376C41.1288 30.2567 42.4107 30.505 43.6875 30.7826C43.9424 30.835 44.0513 30.4425 43.7954 30.3886ZM43.1608 31.0251C42.0047 30.8991 40.8562 30.7102 39.7206 30.4593C39.4656 30.4034 39.3567 30.7945 39.6122 30.8509C40.7837 31.1085 41.9683 31.3026 43.1608 31.4325C43.4202 31.4592 43.4182 31.0533 43.1608 31.0251ZM32.0694 22.1206C33.2454 22.4542 34.3955 22.8731 35.5106 23.3739C35.7467 23.4823 35.9531 23.1323 35.716 23.023C34.5733 22.496 33.3892 22.0638 32.1758 21.7305C32.1264 21.7228 32.0759 21.7336 32.0339 21.7609C31.992 21.7881 31.9615 21.8298 31.9483 21.878C31.9352 21.9262 31.9402 21.9776 31.9626 22.0224C31.9849 22.0671 32.0229 22.1021 32.0694 22.1206ZM31.9367 23.0957C33.1094 23.4457 34.2771 23.81 35.425 24.2377C35.6725 24.3288 35.7764 23.9367 35.5334 23.8456C34.386 23.4186 33.223 23.0381 32.0446 22.7042C31.9939 22.6935 31.941 22.7025 31.8968 22.7294C31.8525 22.7564 31.8202 22.7992 31.8064 22.8492C31.7926 22.8991 31.7984 22.9525 31.8227 22.9983C31.8469 23.0441 31.8877 23.0789 31.9367 23.0957ZM24.9527 26.4493C26.0722 26.7938 27.2215 27.0325 28.3856 27.1621C28.6449 27.1918 28.643 26.7854 28.3856 26.7562C27.2579 26.6278 26.1447 26.394 25.0606 26.0578C24.8107 25.9806 24.7038 26.3721 24.9527 26.4493ZM24.9488 27.5918C28.5326 28.3239 28.7202 28.6892 28.8098 28.317C28.8217 28.2669 28.8141 28.2142 28.7887 28.1695C28.7632 28.1247 28.7218 28.0913 28.6727 28.0759C27.4781 27.741 26.2736 27.4491 25.0592 27.2003C24.8003 27.1478 24.6934 27.5393 24.9488 27.5918ZM30.2507 32.8873C30.5047 32.9482 30.6126 32.5571 30.3581 32.4958C29.2272 32.2256 28.0805 32.0259 26.9248 31.8978C26.6654 31.8686 26.6674 32.2755 26.9248 32.3037C28.0445 32.4293 29.1552 32.6242 30.2507 32.8873ZM31.2675 33.6956C29.7942 33.465 28.2992 33.4067 26.8125 33.5219C26.5541 33.5422 26.5516 33.9486 26.8125 33.9283C28.2632 33.8118 29.7226 33.8651 31.161 34.0872C31.415 34.1268 31.5249 33.7362 31.2675 33.6956ZM50.5497 32.2502C49.1987 31.9447 47.8168 31.797 46.4318 31.8102C46.4051 31.8112 46.3789 31.8174 46.3547 31.8284C46.3304 31.8395 46.3086 31.8553 46.2904 31.8748C46.2722 31.8944 46.2581 31.9173 46.2488 31.9423C46.2395 31.9673 46.2353 31.9939 46.2363 32.0206C46.2521 32.4879 47.1639 31.9028 50.4438 32.6418C50.6962 32.6997 50.8046 32.3082 50.5497 32.2502ZM50.6541 33.0863C49.5172 32.9187 48.3704 32.8267 47.2213 32.8111C47.1947 32.812 47.1685 32.8181 47.1442 32.8292C47.12 32.8402 47.0981 32.8559 47.08 32.8754C47.0618 32.8949 47.0477 32.9178 47.0384 32.9428C47.0291 32.9678 47.0248 32.9943 47.0258 33.021C47.0391 33.417 47.5475 33.0393 50.5462 33.4778C50.8016 33.5155 50.912 33.1244 50.6541 33.0863ZM27.2362 18.7046L27.1025 17.4671C27.0753 17.2102 26.6689 17.2077 26.6966 17.4671L26.8303 18.7046C26.8575 18.9615 27.2644 18.9644 27.2362 18.7046ZM31.0165 14.359C31.0719 14.6144 31.462 14.5075 31.408 14.2511L31.1858 13.2353C31.1303 12.9799 30.7403 13.0868 30.7942 13.3432L31.0165 14.359ZM37.0134 18.8848C36.9147 18.5518 36.8894 18.2013 36.9392 17.8576C36.9783 17.6027 36.5872 17.4918 36.5476 17.7502C36.2788 19.4446 37.0995 19.2446 37.0134 18.8848ZM41.1566 13.068C41.1462 13.3299 41.5526 13.3294 41.5625 13.068C41.6313 11.3355 40.9596 11.7082 41.0294 11.9998C41.1282 12.3469 41.1711 12.7074 41.1566 13.068ZM44.1548 17.915C44.1087 17.4473 44.2879 16.9181 43.9449 16.9295C43.8929 16.931 43.8434 16.9523 43.8066 16.9892C43.7697 17.026 43.7484 17.0755 43.7469 17.1275C43.7934 17.5953 43.6137 18.1244 43.9568 18.113C44.0089 18.1117 44.0584 18.0904 44.0953 18.0535C44.1321 18.0167 44.1534 17.9671 44.1548 17.915ZM61.9094 49.0402C61.9253 49.5202 61.8447 49.9986 61.6723 50.4469C61.5793 50.6915 61.9693 50.7974 62.0634 50.5549C62.2474 50.0718 62.3329 49.5568 62.3148 49.0402C62.3064 48.7793 61.9005 48.7788 61.9094 49.0402ZM66.8218 47.573C66.8271 47.8943 66.8002 48.2153 66.7416 48.5313C66.6921 48.7867 67.0847 48.8966 67.1327 48.6397C67.1999 48.2882 67.2317 47.9308 67.2277 47.573C67.2277 47.5191 67.2063 47.4675 67.1683 47.4295C67.1302 47.3914 67.0786 47.37 67.0248 47.37C66.9709 47.37 66.9193 47.3914 66.8813 47.4295C66.8432 47.4675 66.8218 47.5191 66.8218 47.573ZM81.46 20.5579L81.9703 18.9986C82.052 18.7511 81.6595 18.6432 81.5788 18.8907L81.0684 20.4499C80.9867 20.6984 81.3788 20.8054 81.46 20.5579ZM84.1508 24.7297L84.3918 23.4922C84.4413 23.2373 84.0503 23.1279 84.0008 23.3848L83.7592 24.6223C83.7112 24.8767 84.1013 24.9866 84.1508 24.7297ZM86.7634 21.1231C86.9317 20.3435 87.3029 19.8332 86.9446 19.749C86.8946 19.7369 86.8419 19.7443 86.7972 19.7697C86.7525 19.7951 86.7192 19.8365 86.704 19.8856C86.5347 20.6702 86.1649 21.1726 86.5223 21.2603C86.5724 21.2721 86.6251 21.2646 86.6698 21.2391C86.7146 21.2137 86.748 21.1722 86.7634 21.1231ZM74.0112 18.5284L74.1285 17.9655C74.181 17.7106 73.7899 17.6017 73.737 17.8576L73.6202 18.4209C73.5672 18.6759 73.9582 18.7848 74.0112 18.5284Z" fill="black"/>
<path d="M79.8158 28.3803C81.4988 28.3061 82.0512 28.5466 82.0378 28.1704C82.0367 28.1183 82.0154 28.0686 81.9786 28.0317C81.9417 27.9948 81.892 27.9736 81.8398 27.9724H79.3138C79.2386 27.915 79.1158 27.6398 78.903 27.7997C78.8715 27.8249 78.8469 27.8575 78.8313 27.8947C78.8156 27.9318 78.8096 27.9723 78.8136 28.0124C78.8176 28.0525 78.8316 28.091 78.8543 28.1243C78.877 28.1576 78.9077 28.1847 78.9436 28.2031C79.1407 28.4963 79.2555 28.8371 79.2759 29.1899C79.2963 29.5426 79.2215 29.8944 79.0594 30.2083C78.9396 30.44 79.2896 30.6454 79.4104 30.4133C79.6723 29.9031 79.7483 29.3176 79.6252 28.7575C82.2715 31.2597 81.9552 35.2588 80.2192 36.6775C78.309 37.8863 76.6681 36.0964 74.25 37.5927C72.6378 38.5827 73.0536 40.1004 72.9135 41.1414C72.8151 41.792 72.4993 42.3902 72.0175 42.8384C71.5357 43.2866 70.9163 43.5584 70.2603 43.6095C68.1065 43.7347 65.4776 41.6027 64.148 43.4535C63.6297 44.2322 63.5174 45.6603 61.6314 46.3043C59.2871 47.0611 57.5269 44.9331 55.4157 45.8241C54.1738 46.3414 54.746 46.872 54.9742 46.6225C56.033 45.4657 57.7828 46.2295 59.0074 46.6102C59.4843 46.8055 59.995 46.9047 60.5103 46.9018C61.0256 46.8989 61.5352 46.7941 62.0098 46.5934C62.4845 46.3927 62.9147 46.1001 63.2757 45.7324C63.6367 45.3647 63.9214 44.9292 64.1134 44.451C65.0732 41.679 67.7269 44.0089 70.038 44.0218C70.6889 44.0209 71.3251 43.8293 71.8682 43.4706C72.4113 43.1119 72.8373 42.6019 73.0937 42.0037C73.6877 40.6033 72.8427 39.2025 74.2322 38.1041C76.4715 36.428 78.2446 38.2966 80.3157 37.1071C82.5615 35.5365 82.6877 30.9934 79.8158 28.3803Z" fill="#B26EE6"/>
<path d="M57.2288 33.3437C55.7884 30.4821 53.2842 31.2321 52.3778 29.6268C52.2433 29.4311 52.1721 29.1989 52.1738 28.9614C52.1756 28.724 52.2503 28.4928 52.3877 28.2992C52.6981 27.9433 53.1629 27.7507 53.2406 27.2329C53.2576 27.0142 53.2162 26.7949 53.1205 26.5974C53.0248 26.4 52.8783 26.2315 52.6961 26.1093C51.1062 24.9931 49.5554 27.1924 48.1288 26.0979C47.9665 25.8839 47.8594 25.6332 47.8169 25.3681C47.7743 25.1029 47.7976 24.8313 47.8847 24.5773C48.6653 21.2573 52.7877 21.3949 52.8728 19.0184C53.2385 19.5134 53.6488 19.9739 54.0985 20.394C54.29 20.5717 54.5781 20.2856 54.3861 20.1074C52.8159 18.6496 52.8516 17.87 52.4872 18.1121C52.4474 18.1391 52.4179 18.1789 52.4036 18.2249C52.3105 18.2893 52.3303 18.3571 52.3224 18.4121C51.8262 18.8329 51.2691 19.1762 50.6701 19.4303C50.431 19.5293 50.5355 19.9198 50.778 19.8223C51.388 19.5777 51.9544 19.2358 52.4551 18.81C52.565 19.7911 51.6972 20.4628 50.7948 20.8653C48.9514 21.7602 47.3165 23.3937 47.4229 25.4495C47.4922 26.4751 48.4688 26.9503 49.4851 26.7681C50.0162 26.6726 50.6731 26.3499 51.2898 26.2296C52.3095 26.0316 52.8624 26.6419 52.8446 27.1503C52.7837 27.728 51.8373 27.7824 51.7665 28.8561C51.6992 30.6767 54.1262 31.1707 54.9697 31.6196C56.5274 32.4443 57.4857 34.0016 57.0848 35.7326C56.7878 36.9899 55.9488 38.0551 55.1543 39.0402C54.9914 39.2417 55.2771 39.5307 55.4409 39.3273C56.7848 37.6631 58.2758 35.541 57.2288 33.3437Z" fill="#A76C6C"/>
<path d="M66.5816 23.2442C65.504 21.3087 66.2935 19.5237 65.7223 19.5445C65.6726 19.5461 65.6253 19.5659 65.5893 19.6001C65.5533 19.6343 65.5312 19.6806 65.5272 19.7302C64.3887 19.9866 63.9927 21.2795 63.1339 21.9294C62.7929 22.018 63.9843 21.9324 59.3571 23.4006C59.3199 22.918 59.3041 22.4329 59.2803 21.9492C59.2501 18.5105 57.4488 17.5932 57.5874 15.5702C57.6671 14.3926 58.1775 13.2026 57.6473 12.0596C57.6322 12.029 57.6088 12.0031 57.5799 11.9849C57.5509 11.9667 57.5175 11.9569 57.4833 11.9566C57.4491 11.9562 57.4155 11.9653 57.3862 11.9829C57.3568 12.0005 57.333 12.0258 57.3172 12.0562C57.2796 12.0503 57.2411 12.0547 57.2058 12.0689C57.1705 12.0831 57.1397 12.1066 57.1167 12.1369C55.7228 13.9629 53.2225 12.3349 51.9519 16.0182C50.7144 18.6491 48.6304 16.4112 42.1578 24.1178C41.9875 24.3158 42.2726 24.6019 42.4449 24.4044C44.3051 22.2715 46.2336 20.0613 48.7809 18.7357C49.9026 18.1526 51.2752 17.8165 52.0256 16.7156C52.4647 16.0721 52.828 14.6005 53.3854 14.4386C53.5602 14.3792 53.7492 14.3759 53.926 14.4292C54.1028 14.4824 54.2585 14.5895 54.3714 14.7356C54.7407 15.3692 54.7818 16.4562 57.1929 16.2265C57.3776 18.0333 58.7225 18.6347 58.8527 21.6295C58.8527 26.2508 60.2882 26.6785 60.2387 28.6253C60.2412 28.6773 60.2637 28.7264 60.3014 28.7623C60.3392 28.7982 60.3893 28.8182 60.4414 28.8182C60.4935 28.8182 60.5436 28.7982 60.5813 28.7623C60.619 28.7264 60.6415 28.6773 60.6441 28.6253C60.6866 26.9651 59.5961 26.0097 59.3892 23.8174C61.3267 23.2021 62.3295 22.9625 63.2502 22.3413C64.1749 22.4784 65.0223 23.3174 65.9727 22.9284C66.4346 24.0213 67.3587 24.8841 67.229 26.0419C67.2003 26.3008 67.6067 26.2993 67.6349 26.0419C67.7562 24.9866 67.0647 24.1114 66.5816 23.2442ZM57.1766 15.8192C56.3579 15.8964 55.3322 15.9137 54.961 15.0346C54.6061 13.8204 53.5621 14.1664 54.2427 13.907C55.3169 13.4961 56.5762 13.3625 57.3647 12.4551C57.7315 13.5224 57.1751 14.7015 57.1751 15.8192H57.1766ZM64.5635 22.3942C63.3136 21.8002 63.4958 22.3784 64.412 21.1147C64.6763 20.6863 65.0667 20.3503 65.5297 20.1529C65.5131 20.9596 65.616 21.7642 65.8351 22.5408C65.6238 22.6017 65.4024 22.6202 65.1839 22.595C64.9654 22.5699 64.754 22.5016 64.562 22.3942H64.5635Z" fill="black"/>
<path d="M44.2859 21.2909C40.2719 20.0757 38.8785 21.7156 39.3646 24.2842C39.7339 25.9419 38.6493 26.7527 37.0762 26.5706C35.3734 26.3726 33.6033 24.7223 31.4565 26.1959C31.1069 26.4212 30.8143 26.7245 30.6018 27.0821C30.3893 27.4397 30.2627 27.8417 30.232 28.2565C30.2012 28.6713 30.2671 29.0875 30.4246 29.4725C30.582 29.8575 30.8266 30.2007 31.1392 30.4751C32.791 31.871 35.0061 29.7881 37.1084 31.9399C37.0962 31.9364 37.0838 31.9339 37.0713 31.9324C34.5681 32.0092 34.0542 31.7612 34.0666 32.1304C34.0683 32.179 34.0884 32.2251 34.1228 32.2594C34.1571 32.2938 34.2032 32.3138 34.2518 32.3156C36.8401 32.2477 37.3178 32.4774 37.2534 32.1052C37.2851 32.1433 37.3208 32.1775 37.3524 32.2175C37.5009 32.4106 37.8346 32.2175 37.6836 32.0235C37.2532 31.456 36.6752 31.0177 36.0126 30.7563C35.3501 30.495 34.6285 30.4207 33.9265 30.5415C30.3828 31.2206 29.917 28.017 31.3931 26.7329C33.9948 24.4228 36.3025 28.214 39.027 26.5448C40.8734 25.2341 38.4716 22.6289 40.6313 21.5503C42.3876 20.5895 44.2819 22.0745 44.4161 21.5186C44.4274 21.4712 44.4203 21.4213 44.3961 21.379C44.3719 21.3367 44.3325 21.3052 44.2859 21.2909Z" fill="#FF8684"/>
<path d="M37.4787 29.304C37.489 29.0565 37.1054 29.0565 37.0955 29.304C37.0636 30.1152 37.2368 30.9213 37.5989 31.6479C37.7078 31.8696 38.039 31.6756 37.9301 31.4543C37.602 30.7866 37.4468 30.0473 37.4787 29.304Z" fill="#FF8684"/>
<path d="M20.6192 66.4289C20.5296 66.4591 20.7024 66.4458 20.74 66.3225C20.7283 66.3476 20.7115 66.37 20.6907 66.3883C20.6699 66.4067 20.6456 66.4205 20.6192 66.4289Z" fill="white"/>
<path d="M75.8975 54.747C76.0064 54.5114 75.6559 54.3055 75.547 54.5421C75.4905 54.6731 75.4029 54.7884 75.292 54.8781C75.181 54.9677 75.0499 55.0291 74.91 55.0569C74.654 55.1118 74.7614 55.5024 75.0179 55.4484C75.2089 55.408 75.388 55.3236 75.5407 55.2018C75.6934 55.0801 75.8156 54.9243 75.8975 54.747ZM76.1529 57.8655C75.9219 58.1253 75.6365 58.3308 75.3168 58.4674C75.0778 58.5704 75.2842 58.9204 75.5223 58.8179C75.873 58.6659 76.1861 58.4388 76.4395 58.1526C76.6132 57.9576 76.3281 57.6675 76.1529 57.8655ZM74.8184 61.2924C74.4832 62.5196 74.0127 63.7059 73.4155 64.8292C73.2893 65.0584 73.6408 65.2638 73.766 65.0341C74.3957 63.8872 74.8807 62.6666 75.2099 61.4003C75.2206 61.3496 75.2116 61.2967 75.1847 61.2525C75.1577 61.2082 75.1149 61.1759 75.0649 61.1621C75.015 61.1483 74.9616 61.1541 74.9158 61.1784C74.87 61.2026 74.8351 61.2434 74.8184 61.2924ZM89.3313 48.9872C87.0397 49.5669 84.7943 50.3159 82.6136 51.2281C82.376 51.3271 82.48 51.7196 82.7225 51.6196C88.3942 49.2733 89.7322 49.6396 89.5723 49.1238C89.5571 49.0747 89.5236 49.0332 89.4788 49.0078C89.4341 48.9824 89.3813 48.9751 89.3313 48.9872ZM90.9569 54.7401C88.562 53.9241 86.0603 53.4639 83.5319 53.3744C83.2705 53.365 83.271 53.7704 83.5319 53.7803C86.0232 53.8718 88.4878 54.327 90.8475 55.1316C91.0969 55.2158 91.2034 54.8242 90.9569 54.7401ZM84.111 55.7771C84.0645 55.7499 84.0092 55.7423 83.9571 55.756C83.905 55.7696 83.8605 55.8034 83.8333 55.8499C83.8061 55.8963 83.7985 55.9517 83.8122 56.0038C83.8258 56.0559 83.8596 56.1004 83.9061 56.1276C85.4333 57.013 86.7372 58.2368 87.7176 59.7049C87.8616 59.9217 88.2126 59.7188 88.0675 59.5C87.0631 57.9624 85.7068 56.6862 84.111 55.7771ZM12.6771 22.572C12.8122 22.7948 13.1636 22.5908 13.0275 22.3671C12.1123 20.8634 11.3539 19.2697 10.7644 17.6111C10.6773 17.3666 10.2852 17.4725 10.3728 17.7195C10.9729 19.4116 11.745 21.0376 12.6771 22.572ZM10.8015 23.3962C11.0332 23.516 11.2391 23.1655 11.0059 23.0457C8.31116 21.6632 8.28938 19.8812 7.80379 20.1871C7.7603 20.2146 7.7289 20.2577 7.71594 20.3075C7.70298 20.3573 7.70944 20.4102 7.73399 20.4554C8.44998 21.7121 9.51568 22.7338 10.8015 23.3962ZM5.28374 25.0965L10.256 25.938C10.5114 25.9806 10.6213 25.5915 10.3639 25.5465L5.39116 24.705C5.13623 24.6629 5.02585 25.0539 5.28374 25.0965ZM65.4876 7.92447C70.9922 8.02024 76.4064 9.34015 81.3375 11.7884C81.5697 11.9062 81.7751 11.5563 81.542 11.4385C76.5601 8.92298 71.0682 7.58206 65.4876 7.51857C65.4338 7.51857 65.3822 7.53995 65.3441 7.57801C65.306 7.61607 65.2847 7.66769 65.2847 7.72152C65.2847 7.77534 65.306 7.82696 65.3441 7.86502C65.3822 7.90308 65.4338 7.92447 65.4876 7.92447ZM66.2415 5.50887C75.9717 5.78656 81.1905 8.14128 81.3148 7.63242C81.3269 7.58246 81.3195 7.52976 81.2941 7.48506C81.2687 7.44037 81.2272 7.40703 81.1781 7.39185C76.3127 6.01566 71.2957 5.24686 66.2415 5.10297C66.1941 5.11176 66.1513 5.13687 66.1204 5.17394C66.0896 5.21101 66.0728 5.25771 66.0728 5.30592C66.0728 5.35413 66.0896 5.40082 66.1204 5.43789C66.1513 5.47496 66.1941 5.50007 66.2415 5.50887Z" fill="black"/>
</svg>
