<svg width="56" height="56" viewBox="0 0 56 56" fill="none" xmlns="http://www.w3.org/2000/svg">
<path opacity="0.5" d="M27.9994 4.6665C23.3845 4.6665 18.8732 6.03498 15.0361 8.59888C11.1989 11.1628 8.20821 14.8069 6.44217 19.0706C4.67613 23.3342 4.21405 28.0257 5.11437 32.5519C6.01469 37.0782 8.23698 41.2358 11.5002 44.499C14.7634 47.7622 18.921 49.9845 23.4473 50.8848C27.9735 51.7851 32.665 51.3231 36.9286 49.557C41.1922 47.791 44.8364 44.8003 47.4003 40.9631C49.9642 37.126 51.3327 32.6147 51.3327 27.9998C51.3327 24.9357 50.7292 21.9015 49.5565 19.0706C48.3839 16.2396 46.6652 13.6674 44.4985 11.5007C42.3318 9.33398 39.7596 7.61526 36.9286 6.44265C34.0977 5.27004 31.0635 4.6665 27.9994 4.6665ZM27.9994 46.6665C24.3074 46.6665 20.6984 45.5717 17.6287 43.5206C14.559 41.4695 12.1664 38.5541 10.7536 35.1433C9.34077 31.7324 8.97111 27.9791 9.69137 24.3582C10.4116 20.7372 12.1895 17.4111 14.8 14.8005C17.4106 12.1899 20.7367 10.4121 24.3577 9.69185C27.9787 8.97159 31.7319 9.34125 35.1428 10.7541C38.5537 12.1669 41.469 14.5595 43.5201 17.6292C45.5712 20.6989 46.666 24.3079 46.666 27.9998C46.666 32.9505 44.6994 37.6985 41.1987 41.1992C37.698 44.6998 32.9501 46.6665 27.9994 46.6665Z" fill="white"/>
<path d="M46.6667 27.9998H51.3333C51.3333 24.9357 50.7298 21.9015 49.5572 19.0706C48.3846 16.2396 46.6659 13.6674 44.4992 11.5007C42.3325 9.33398 39.7602 7.61526 36.9293 6.44265C34.0984 5.27004 31.0642 4.6665 28 4.6665V9.33317C32.9507 9.33317 37.6986 11.2998 41.1993 14.8005C44.7 18.3012 46.6667 23.0491 46.6667 27.9998Z" fill="white"/>
</svg>
